<svg width="123" height="40" viewBox="0 0 123 40" fill="none" xmlns="http://www.w3.org/2000/svg">
<g clip-path="url(#clip0_47_63)">
<path d="M1.05811 24.9924C0.849153 31.0347 7.73652 37.6051 12.8901 39.9631H2.55811C-1.71524 32.2018 1.04908 25.0159 1.05811 24.9924Z" fill="#86B7F3"/>
<path d="M13.5913 11.8391C-1.45144 22.1062 29.2495 39.9509 29.2495 39.9631H14.022C-3.88678 25.7292 4.14494 15.6832 13.5913 11.8391Z" fill="#86B7F3"/>
<path d="M48.228 16.8254C51.4137 16.8254 52.4101 18.8517 52.4224 21.3694V31.3665H49.4214V22.1926C49.4214 20.4118 48.9292 19.3801 47.3179 19.3801C45.2025 19.3804 43.6401 21.64 43.6401 24.4768V31.3538H40.6147V17.1204H43.5054C43.5054 18.0536 43.4434 18.9748 43.3081 19.8958L43.3335 19.9202C44.1453 18.0782 45.8421 16.8256 48.228 16.8254Z" fill="#10509E"/>
<path d="M86.2476 16.8499C87.7605 16.8499 89.2737 17.0704 90.7251 17.5002L90.1958 20.0432C88.9535 19.5397 87.6127 19.2815 86.272 19.2815C83.6153 19.2816 81.4624 20.9273 81.4624 24.1204C81.4624 27.1292 83.308 28.7747 85.9771 28.7747C86.6904 28.7746 87.3915 28.677 88.0679 28.5051V23.7883H91.02V30.4202C89.3226 31.0588 87.5142 31.3787 85.6938 31.3665C81.4013 31.3664 78.3022 28.9836 78.3022 24.3782C78.3023 20.1534 81.2661 16.8499 86.2476 16.8499Z" fill="#10509E"/>
<path fill-rule="evenodd" clip-rule="evenodd" d="M32.2993 16.8254C36.1983 16.8254 37.8838 19.5516 37.8716 22.8674C37.8716 23.3341 37.8348 23.8011 37.7856 24.2678H29.0767C28.9906 27.4977 30.3936 28.9592 33.1118 28.9592C34.5015 28.9592 35.8544 28.6644 37.1089 28.0627L37.3921 30.4456C35.8915 31.0473 34.2798 31.3543 32.6685 31.342C28.4005 31.342 26.064 29.0942 26.064 24.1819C26.064 19.9695 28.3143 16.8256 32.2993 16.8254ZM32.2017 19.0237C30.5412 19.0237 29.3842 20.2642 29.1382 22.1555H34.9438C35.0053 20.2275 33.9357 19.0239 32.2017 19.0237Z" fill="#10509E"/>
<path fill-rule="evenodd" clip-rule="evenodd" d="M61.6108 16.8254C65.6698 16.8254 67.4041 19.5516 67.4165 22.8674C67.4165 23.2604 67.3798 23.7274 67.3306 24.2678H58.2896C58.2158 27.4976 59.6674 28.9591 62.4839 28.9592C63.9106 28.9592 65.3253 28.6521 66.6167 28.0627L66.8999 30.4456C65.338 31.0472 63.6653 31.3543 61.9927 31.342C57.5647 31.342 55.1412 29.0943 55.1411 24.1819C55.1411 19.9694 57.4781 16.8255 61.6108 16.8254ZM61.5005 19.0237C59.7908 19.0237 58.5977 20.2642 58.3394 22.1555H64.354C64.4032 20.2275 63.2961 19.0238 61.5005 19.0237Z" fill="#10509E"/>
<path d="M72.7671 20.2883C73.3821 18.3603 74.7846 16.592 77.3921 16.8499L77.2563 19.8469C74.4889 19.3434 73.1362 21.308 73.1362 25.5696V31.342H70.1353V17.1448H73.0005C72.9882 18.2008 72.8895 19.2445 72.7173 20.2883H72.7671Z" fill="#10509E"/>
<path d="M96.936 31.342H93.7505V17.2795H96.936V31.342Z" fill="#10509E"/>
<path d="M106.432 16.8254C107.293 16.8255 108.461 16.9478 109.187 17.2424L109.052 19.5764C108.13 19.2325 107.157 19.0602 106.173 19.0725C104.415 19.0726 102.926 19.552 102.926 20.6204C102.927 23.322 110.122 22.5485 110.11 27.1907C110.098 29.7942 107.748 31.3419 103.8 31.342C102.497 31.3052 101.192 31.0716 99.9624 30.6418L100.061 27.9524C101.082 28.3944 102.865 28.8245 103.997 28.8245C105.719 28.8245 106.789 28.6273 106.789 27.4729C106.788 24.6608 99.6555 25.7413 99.6675 20.9153C99.6675 18.4959 102.422 16.8254 106.432 16.8254Z" fill="#10509E"/>
<path fill-rule="evenodd" clip-rule="evenodd" d="M117.391 16.8254C121.585 16.8254 122.742 18.6797 122.742 21.5413V27.2522C122.742 28.4516 122.766 29.8705 122.827 31.0471H119.974C119.962 30.1875 119.999 29.3277 120.11 28.468L120.085 28.4436C119.421 30.0892 117.711 31.2802 115.534 31.3293C113.96 31.3661 113.025 30.8994 112.176 29.6223C111.783 29.0575 111.537 28.3822 111.475 27.6946C111.414 27.007 111.524 26.3067 111.794 25.6682C112.003 25.1525 112.323 24.6852 112.705 24.2922C114.156 22.794 116.948 22.0813 119.79 22.0813C119.789 20.3499 119.064 19.1713 116.924 19.1711C115.657 19.1711 113.997 19.5642 112.84 20.301L112.57 17.7463C114.107 17.1446 115.743 16.8377 117.391 16.8254ZM119.79 24.1077C118.756 24.0954 117.736 24.2068 116.727 24.4524C116.174 24.5752 115.645 24.8079 115.19 25.1516C113.739 26.3552 114.501 28.345 115.251 28.7502C115.62 28.9221 116.026 29.0082 116.432 28.9836C118.437 28.9835 119.79 26.3677 119.79 24.3782V24.1077Z" fill="#10509E"/>
<path d="M18.9546 0.0490723C27.141 9.20502 13.154 19.0844 13.1362 19.0969C21.377 6.33681 2.44775 0.0490723 2.44775 0.0490723H18.9546Z" fill="#10509E"/>
</g>
<defs>
<clipPath id="clip0_47_63">
<rect width="123" height="40" fill="white"/>
</clipPath>
</defs>
</svg>
