<svg width="122" height="40" viewBox="0 0 122 40" fill="none" xmlns="http://www.w3.org/2000/svg">
<g clip-path="url(#clip0_47_6)">
<path d="M94.2574 28.8869C94.2574 27.3548 93.0156 26.1118 91.4849 26.1118C89.9533 26.1118 88.7124 27.3544 88.7124 28.8869V31.662H90.0987L90.1005 28.8869C90.1005 28.1213 90.7205 27.5014 91.4849 27.5014C92.2489 27.5014 92.8689 28.1213 92.8689 28.8869V31.662H94.2574V28.8869Z" fill="#10509E"/>
<path fill-rule="evenodd" clip-rule="evenodd" d="M87.3254 28.8869C87.3254 29.1258 87.2955 29.3584 87.2382 29.5801L87.2364 29.5797H83.3552C83.595 29.9933 84.0411 30.272 84.5534 30.272C84.9354 30.272 85.2815 30.1177 85.5318 29.8666L86.5138 30.8494C86.0119 31.3512 85.3183 31.662 84.5534 31.662C83.0223 31.662 81.6279 30.4191 81.6279 28.8869C81.6279 27.3539 83.0223 26.1118 84.5534 26.1118C86.0845 26.1118 87.3254 27.3539 87.3254 28.8869ZM85.7507 28.1942C85.5113 27.7801 85.0658 27.5014 84.5534 27.5014C84.0411 27.5014 83.5946 27.7801 83.3552 28.1942H85.7507Z" fill="#10509E"/>
<path fill-rule="evenodd" clip-rule="evenodd" d="M101.101 29.5801C101.158 29.3584 101.189 29.1258 101.189 28.8869C101.189 27.3539 99.9478 26.1118 98.4166 26.1118C96.8855 26.1118 95.6441 27.3539 95.6441 28.8869C95.6441 30.4191 96.8855 31.662 98.4166 31.662C99.1824 31.662 99.8751 31.3512 100.377 30.8494L99.3954 29.8666C99.1447 30.1177 98.7991 30.272 98.4166 30.272C97.9043 30.272 97.4582 29.9933 97.2184 29.5797H101.1L101.101 29.5801ZM98.4162 27.5014C98.9285 27.5014 99.3741 27.7801 99.6135 28.1942H97.218C97.4578 27.7801 97.9043 27.5014 98.4162 27.5014Z" fill="#10509E"/>
<path d="M113.666 26.1113H115.052V31.6593H113.666V26.1113Z" fill="#10509E"/>
<path d="M102.575 28.8874L102.576 31.662H103.961L103.963 28.8874C103.963 28.1218 104.583 27.5019 105.348 27.5019L105.348 26.1118C103.816 26.1118 102.575 27.3553 102.575 28.8874Z" fill="#10509E"/>
<path fill-rule="evenodd" clip-rule="evenodd" d="M119.211 26.1113C120.743 26.1113 121.984 27.3543 121.984 28.8864V31.662H120.598V31.2896C120.191 31.5258 119.717 31.662 119.211 31.662C117.68 31.662 116.439 30.4195 116.439 28.8864C116.439 27.3539 117.68 26.1113 119.211 26.1113ZM117.827 28.8864C117.827 29.6521 118.446 30.272 119.211 30.272C119.975 30.272 120.596 29.6521 120.595 28.8864C120.595 28.1213 119.975 27.5014 119.211 27.5014C118.446 27.5014 117.827 28.1213 117.827 28.8864Z" fill="#10509E"/>
<path fill-rule="evenodd" clip-rule="evenodd" d="M112.28 28.8868C112.28 28.3723 112.139 27.8904 111.895 27.4778L112.567 26.8058L111.586 25.8248L110.915 26.4968C110.501 26.2524 110.02 26.1122 109.507 26.1122C107.975 26.1122 106.734 27.3547 106.734 28.8873C106.734 30.4199 107.975 31.6624 109.507 31.6624C110.271 31.6624 110.891 32.2827 110.891 33.0479C110.891 33.8131 110.271 34.4334 109.507 34.4334C108.742 34.4334 108.122 33.8131 108.122 33.0479H106.734C106.734 34.5809 107.975 35.823 109.506 35.823C111.037 35.823 112.279 34.5809 112.279 33.0479C112.279 32.2189 111.915 31.4764 111.34 30.9674C111.916 30.4588 112.28 29.7153 112.28 28.8868ZM108.122 28.8868C108.122 28.1212 108.742 27.5013 109.507 27.5013C110.271 27.5013 110.891 28.1212 110.891 28.8868C110.891 29.6524 110.271 30.2723 109.507 30.2723C108.742 30.2723 108.122 29.652 108.122 28.8868Z" fill="#10509E"/>
<path d="M66.5305 31.662C68.0626 31.662 69.3039 30.4195 69.3039 28.8864C69.3039 27.3534 68.0626 26.1113 66.5305 26.1113C64.9994 26.1113 63.7581 27.3534 63.7581 28.8864C63.7581 30.4195 64.999 31.662 66.5305 31.662Z" fill="#10509E"/>
<path fill-rule="evenodd" clip-rule="evenodd" d="M23.3462 3.92764L20.6621 6.61422C21.638 8.26692 22.198 10.1947 22.198 12.2534C22.198 18.3846 17.2322 23.3543 11.1072 23.3543C4.9822 23.3543 0.0163574 18.3842 0.0163574 12.2534C0.0163574 6.12309 4.9822 1.15295 11.1072 1.15295C13.1638 1.15295 15.0897 1.7133 16.7408 2.68977L19.425 0.00366211L23.3462 3.92764ZM11.1072 17.7955C8.04901 17.7955 5.5704 15.3145 5.5704 12.2534C5.5704 9.19323 8.04901 6.71178 11.1072 6.71178C14.1654 6.71178 16.6444 9.19323 16.6444 12.2534C16.6449 15.3145 14.1654 17.7955 11.1072 17.7955Z" fill="#10509E"/>
<path fill-rule="evenodd" clip-rule="evenodd" d="M83.1666 12.2534C83.1666 6.12264 88.132 1.15295 94.2574 1.15295C100.382 1.15295 105.347 6.12309 105.347 12.2534C105.347 18.3846 100.382 23.3543 94.2574 23.3543C88.1315 23.3543 83.1666 18.3842 83.1666 12.2534ZM88.7197 12.2534C88.7197 15.3145 91.1992 17.7955 94.2574 17.7955C97.3156 17.7955 99.7947 15.3145 99.7947 12.2534C99.7947 9.19323 97.3156 6.71178 94.2574 6.71178C91.1988 6.71178 88.7197 9.19323 88.7197 12.2534Z" fill="#10509E"/>
<path d="M44.3493 1.15295H49.8947V23.3539H44.3493V1.15295Z" fill="#10509E"/>
<path d="M27.7156 12.2552L27.7174 23.3543H33.2588L33.2629 12.2552C33.2629 9.19455 35.746 6.71129 38.8042 6.71129V1.15247C32.6792 1.15247 27.7156 6.12486 27.7156 12.2552Z" fill="#10509E"/>
<path fill-rule="evenodd" clip-rule="evenodd" d="M78.77 3.92764L76.0857 6.61453C77.0613 8.26716 77.6212 10.1949 77.6212 12.2534C77.6212 15.5668 76.171 18.5411 73.8713 20.575C76.1711 22.609 77.6212 25.5832 77.6212 28.896C77.6212 35.0272 72.6558 39.9969 66.5303 39.9969C60.4054 39.9969 55.4395 35.0268 55.4395 28.896C55.4395 26.5833 56.1494 24.4381 57.3595 22.6602C58.7566 23.8942 60.4026 24.8503 62.2145 25.4435C61.455 26.391 60.9936 27.5865 60.9936 28.8955C60.9936 31.9566 63.4722 34.4376 66.5303 34.4376C69.5885 34.4376 72.0676 31.9566 72.0676 28.8955C72.0676 25.8539 69.6185 23.384 66.5859 23.3542L66.5303 23.3543C60.4054 23.3543 55.4395 18.3842 55.4395 12.2534C55.4395 6.12264 60.4054 1.15295 66.5303 1.15295C68.5872 1.15295 70.5133 1.7133 72.1644 2.68976L74.8489 0.00366211L78.77 3.92764ZM66.5303 17.7955C63.4722 17.7955 60.9936 15.3145 60.9936 12.2534C60.9936 9.19323 63.4722 6.71178 66.5303 6.71178C69.5885 6.71178 72.0676 9.19323 72.0676 12.2534C72.068 15.3145 69.5885 17.7955 66.5303 17.7955Z" fill="#10509E"/>
</g>
<defs>
<clipPath id="clip0_47_6">
<rect width="122" height="40" fill="white"/>
</clipPath>
</defs>
</svg>
