<svg width="141" height="40" viewBox="0 0 141 40" fill="none" xmlns="http://www.w3.org/2000/svg">
<path fill-rule="evenodd" clip-rule="evenodd" d="M0 3.3463C0 5.791 0.28822 6.65122 1.10854 6.65122C1.73227 6.65122 2.21707 5.99053 2.21707 5.14213C2.21707 3.73355 2.59989 3.64709 7.94451 3.84884L13.672 4.06464L13.9033 6.46647C14.1301 8.81583 14.2137 8.8683 17.7366 8.8683C21.2595 8.8683 21.343 8.81583 21.5699 6.46647L21.8012 4.06464L27.2198 3.84662C32.152 3.64783 32.673 3.76385 33.0329 5.13992C33.7313 7.80928 34.7342 6.75395 34.7342 3.34926V0.047297L17.3671 0.0443425L0 0.0413852V3.3463ZM48.0262 1.07085C45.0568 2.68636 42.8339 7.4538 42.3483 13.247C41.93 18.2406 41.9803 18.4453 44.1811 20.6461L46.4447 22.9098H58.6165C71.0624 22.9098 71.6854 22.7701 71.6854 19.9773C71.6854 19.6499 68.1595 19.2516 63.8503 19.092C54.4136 18.7431 53.8542 18.3167 54.4787 11.9493C55.2088 4.49918 56.3772 3.69512 66.4745 3.69512C72.839 3.69512 72.9994 3.65226 73.3445 1.84756L73.6977 0L61.7906 0.0295617C53.161 0.0509934 49.3727 0.337735 48.0262 1.07085ZM81.9105 1.6665C79.1222 4.01512 77.4978 7.68733 77.047 12.6573C76.5873 17.727 77.67 20.8908 80.2691 22.0747C82.4958 23.0893 105.681 23.232 105.681 22.2313C105.681 21.8581 105.867 21.0652 106.097 20.4695C106.442 19.5694 105.175 19.3366 98.631 19.0942C91.8689 18.8437 90.6 18.5976 89.6947 17.3597C87.3697 14.1804 88.4368 13.6867 98.1144 13.4643L107.159 13.2566V11.432V9.60732H98.2903C88.6704 9.60732 88.026 9.27919 90.8335 5.80947C92.1283 4.20949 92.8932 4.04394 100.071 3.81263C107.778 3.56432 107.898 3.53328 107.898 1.78031V0L95.8884 0.00369591C84.5222 0.00739104 83.7736 0.096074 81.9105 1.6665ZM112.818 1.66281C112.056 4.72976 111.387 16.818 111.873 18.752C112.746 22.2336 115.459 22.9098 128.553 22.9098H140.415L140.412 20.8774L140.409 18.8451H133.047C123.151 18.8451 123.059 18.7476 124.104 9.37305C124.539 5.46952 124.895 1.76331 124.895 1.13736C124.895 0.209884 123.821 0 119.063 0C113.63 0 113.203 0.11381 112.818 1.66281ZM13.9033 16.4433L13.672 18.8451L8.30812 19.0624C3.15416 19.2708 2.91619 19.2058 2.22964 17.3996C1.04276 14.2787 -0.103458 15.1751 0.144115 19.0299L0.369512 22.5403H17.3671H34.3646L34.59 19.0299C34.814 15.5358 33.5776 13.9787 33.1231 17.1823C32.9021 18.738 32.5289 18.8451 27.3439 18.8451H21.8012L21.5699 16.4433C21.343 14.0939 21.2595 14.0415 17.7366 14.0415C14.2137 14.0415 14.1301 14.0939 13.9033 16.4433ZM2.27619 30.8543C0.124146 32.6132 -0.5491 37.0355 1.08562 38.6702C2.75434 40.3389 12.5634 40.4838 12.5634 38.8394C12.5634 38.0923 11.5251 37.7036 9.1107 37.5461C3.94048 37.2084 3.99516 35.4732 9.17646 35.4732C11.446 35.4732 13.3024 35.1406 13.3024 34.7342C13.3024 34.3277 11.6115 33.9951 9.54597 33.9951C4.6625 33.9951 4.91895 32.2436 9.84972 31.9222C12.2641 31.7648 13.3024 31.376 13.3024 30.6289C13.3024 28.969 4.3595 29.1523 2.27619 30.8543ZM15.5129 30.8543C15.5099 31.566 15.2971 33.8931 15.0406 36.0274C14.6061 39.6442 14.6822 39.9073 16.1558 39.9073C17.4698 39.9073 17.7366 39.4706 17.7366 37.3207C17.7366 34.0668 18.4025 34.069 20.5146 37.3296C21.8759 39.4314 22.643 39.9073 24.6672 39.9073C26.9626 39.9073 27.185 39.6974 27.6085 37.136C28.4813 31.8557 28.2137 29.428 26.7896 29.6984C25.9021 29.8677 25.3803 30.8558 25.1268 32.8504L24.7573 35.7562L22.7147 32.6582C20.9639 30.0044 20.3032 29.561 18.0958 29.561C16.1373 29.561 15.518 29.8714 15.5129 30.8543ZM31.8372 30.8543C30.9673 31.566 30.065 33.3367 29.8322 34.7903C29.1893 38.8062 30.7323 39.9073 37.0037 39.9073C41.3839 39.9073 42.1259 39.7204 42.1348 38.614C42.1399 37.9024 42.3528 36.5433 42.607 35.5929C43.0083 34.0956 42.8339 33.8983 41.3041 34.1149C40.1327 34.2804 39.458 34.9248 39.3013 36.0274C39.1299 37.2372 38.5704 37.6903 37.2461 37.6903C35.032 37.6903 34.426 36.3807 35.4244 33.7527C36.0858 32.0138 36.5751 31.7781 39.5193 31.7781C41.9995 31.7781 42.8634 31.4913 42.8634 30.6695C42.8634 28.972 33.9582 29.1205 31.8372 30.8543ZM47.1025 30.4848C45.8572 31.4307 44.3415 34.7748 44.3415 36.5773C44.3415 38.9015 46.5889 39.9073 51.7842 39.9073C55.7572 39.9073 56.9049 39.6679 56.9049 38.8394C56.9049 38.0893 55.8592 37.7043 53.3945 37.5461C48.667 37.2424 48.9249 35.8981 53.764 35.6195C58.7414 35.3328 58.8426 33.9951 53.8874 33.9951C49.004 33.9951 49.2604 32.2436 54.1912 31.9222C56.6056 31.7648 57.6439 31.376 57.6439 30.6289C57.6439 29.2454 48.8924 29.1257 47.1025 30.4848ZM59.592 32.9901C58.7975 38.7847 58.9616 39.9073 60.6 39.9073C61.7965 39.9073 62.0781 39.4144 62.0781 37.3207C62.0781 34.0668 62.7439 34.069 64.8561 37.3296C66.2173 39.4314 66.9844 39.9073 69.0086 39.9073C71.304 39.9073 71.5265 39.6974 71.95 37.136C72.8375 31.7684 72.5574 29.561 70.9885 29.561C69.8319 29.561 69.509 30.1625 69.3257 32.6597L69.0988 35.7592L67.0561 32.6597C65.3312 30.0443 64.6277 29.561 62.5377 29.561C60.1529 29.561 60.045 29.6866 59.592 32.9901ZM74.6348 30.8543C74.6319 31.566 74.419 33.8931 74.1626 36.0274L73.6963 39.9073H76.3368C78.6684 39.9073 79.0047 39.6694 79.2116 37.875C79.3949 36.2787 79.8812 35.7924 81.4775 35.6092C83.3036 35.3985 83.5098 35.6047 83.5098 37.6415C83.5098 39.3619 83.8423 39.9073 84.891 39.9073C86.3388 39.9073 87.1798 37.0089 87.1968 31.9628C87.2034 30.051 86.9034 29.561 85.7269 29.561C84.5769 29.561 84.2488 30.0539 84.2488 31.7781C84.2488 33.749 84.0027 33.9951 82.0317 33.9951C80.0607 33.9951 79.8147 33.749 79.8147 31.7781C79.8147 29.7369 79.6092 29.561 77.2281 29.561C75.26 29.561 74.64 29.8699 74.6348 30.8543ZM95.2396 31.9628C94.0135 33.2834 92.0093 35.6121 90.7847 37.136L88.5588 39.9073H91.1461C93.2804 39.9073 94.1983 39.3575 96.3902 36.7665L99.0478 33.6256L98.5748 36.7665C98.1513 39.5733 98.2585 39.9073 99.5814 39.9073C101.212 39.9073 101.985 37.4988 101.985 32.4247C101.985 29.7236 101.857 29.561 99.7269 29.561C98.1284 29.561 96.8167 30.2631 95.2396 31.9628ZM104.196 30.8543C104.193 31.566 103.98 33.8931 103.724 36.0274L103.257 39.9073H105.898C108.219 39.9073 108.572 39.6612 108.815 37.875L109.09 35.8427L109.954 37.875C110.663 39.5445 111.282 39.9073 113.422 39.9073C116.292 39.9073 116.399 39.7662 115.204 37.5336C114.544 36.3016 114.618 35.8626 115.573 35.3283C117.091 34.4792 117.106 32.2237 115.605 30.722C114.772 29.8898 112.992 29.561 109.323 29.561C104.941 29.561 104.202 29.748 104.196 30.8543ZM118.976 30.8543C118.973 31.566 118.761 33.8931 118.504 36.0274L118.038 39.9073H120.627C123.147 39.9073 123.229 39.8157 123.686 36.4783C124.58 29.9608 124.457 29.561 121.57 29.561C119.602 29.561 118.981 29.8699 118.976 30.8543ZM131.416 32.7018C129.813 34.4297 127.834 36.7569 127.017 37.875L125.534 39.9073H128.133C130.235 39.9073 131.11 39.4129 132.705 37.3207C133.79 35.8981 134.905 34.7342 135.181 34.7342C135.457 34.7342 135.548 35.8981 135.382 37.3207C135.127 39.5053 135.307 39.9073 136.538 39.9073C137.713 39.9073 138.088 39.2407 138.467 36.4783C139.342 30.0946 139.2 29.561 136.634 29.561C134.876 29.561 133.643 30.303 131.416 32.7018ZM109.376 32.8378C109.376 33.6382 110.078 33.9951 111.654 33.9951C114.482 33.9951 114.228 32.254 111.351 31.914C109.951 31.7478 109.376 32.0168 109.376 32.8378Z" fill="#10509E"/>
<rect x="9.60742" y="8.12927" width="16.2585" height="6.65122" fill="#10509E"/>
</svg>
