<svg width="84" height="40" viewBox="0 0 84 40" fill="none" xmlns="http://www.w3.org/2000/svg">
<path fill-rule="evenodd" clip-rule="evenodd" d="M56.4566 0.961891C54.7132 1.35925 53.5731 2.59344 53.2175 4.46834C53.1645 4.74821 53.1189 6.70452 53.1163 8.81565L53.1115 12.6542L52.8204 12.0255C52.6603 11.6796 52.3297 11.205 52.0859 10.9706L51.6424 10.5445L51.9835 10.1562C52.6758 9.36753 53.0119 8.19313 53.0148 6.55207C53.0183 4.60817 52.5667 3.50638 51.3333 2.44833C49.8108 1.14237 49.2361 1.00409 45.4916 1.04287L42.8302 1.07049L42.8038 10.4564L42.7773 19.8423H43.2434C43.7069 19.8423 43.7093 19.8442 43.7093 20.2043V20.5663H46.559C49.9345 20.5663 50.4921 20.4805 51.4967 19.8071C52.2789 19.2829 52.7424 18.6223 53.0413 17.6064L53.2618 16.8569L53.487 17.4109C53.8086 18.2023 54.2467 18.7519 55.1084 19.4449C56.4601 20.5321 57.3861 20.8363 59.068 20.7458C61.1046 20.6363 62.3511 19.7825 63.0688 18.0054L63.3085 17.4118V11.1545V4.89725L63.0361 4.25063C62.6048 3.22733 61.9237 2.47543 60.5933 1.55432C59.6898 0.928691 57.7935 0.657095 56.4566 0.961891ZM0.684082 2.6677V4.31651L1.12364 4.34837C1.53517 4.37805 1.56527 4.40132 1.59537 4.71263L1.62743 5.04505L2.62963 5.07462L3.63172 5.1041L3.6583 12.4732L3.68478 19.8423H4.09786C4.50091 19.8423 4.51084 19.851 4.51084 20.2043V20.5663H6.3208H8.13075V12.8093V5.05239H9.63043H11.1301V3.39757V1.74276H10.6647C10.2018 1.74276 10.1993 1.74079 10.1993 1.38077V1.01878H5.44168H0.684082V2.6677ZM11.9082 1.24962C11.8384 1.55183 8.95816 19.6049 8.95816 19.7402C8.95816 19.7964 9.17267 19.8423 9.43485 19.8423H9.91164L9.86934 20.2043L9.82715 20.5663H11.5046H13.1822L13.2369 20.2819C13.267 20.1255 13.3651 19.4855 13.4549 18.8598C13.7142 17.054 13.5615 17.2446 14.7226 17.2788L15.7238 17.3084L15.795 17.6704C15.8342 17.8695 15.9225 18.4396 15.9911 18.9373L16.116 19.8423H16.5074C16.8729 19.8423 16.9034 19.8663 16.9668 20.2043L17.0348 20.5663H18.84C19.8329 20.5663 20.6453 20.5429 20.6453 20.5144C20.6453 20.4857 20.4613 19.3106 20.2364 17.9029C20.0115 16.495 19.3593 12.4111 18.787 8.82744C18.2149 5.24373 17.7203 2.18366 17.6881 2.02718C17.6364 1.77616 17.5826 1.74276 17.2306 1.74276C16.8561 1.74276 16.8297 1.72218 16.7992 1.40662L16.7668 1.07049L14.3647 1.04277L11.9624 1.01495L11.9082 1.24962ZM18.4734 2.67359V4.32841H18.8805C19.2642 4.32841 19.2895 4.34775 19.3201 4.66454L19.3525 5.00068L20.3867 5.05239L21.421 5.1041L21.4476 12.4732L21.474 19.8423H21.8871C22.2902 19.8423 22.3001 19.851 22.3001 20.2043V20.5663H24.1101H25.92V12.8093V5.05239H27.1611H28.4022V10.5806C28.4022 16.4975 28.4213 16.7602 28.9275 17.8347C29.4249 18.8902 31.0194 20.206 32.2565 20.5817C32.8591 20.7648 33.1547 20.7907 34.1761 20.75C35.1952 20.7094 35.4776 20.6594 35.9868 20.4291C37.1549 19.9009 37.8207 19.147 38.2635 17.8511C38.48 17.2175 38.4848 17.0548 38.5154 9.47385L38.5467 1.74276H38.0769C37.609 1.74276 37.6072 1.74131 37.6072 1.38077V1.01878H35.9032H34.1993L34.1708 8.54767C34.1446 15.5027 34.1286 16.0975 33.9622 16.3515C33.7472 16.6794 33.0897 16.8553 32.9433 16.6239C32.8934 16.5453 32.852 13.1649 32.8511 9.11186L32.8496 1.74276H32.4424C32.0587 1.74276 32.0334 1.72342 32.0028 1.40662L31.9704 1.07049L30.1863 1.04215L28.4022 1.01391V1.37828C28.4022 1.67377 28.3631 1.74276 28.1954 1.74276C28.0279 1.74276 27.9885 1.67377 27.9885 1.38077V1.01878H23.2309H18.4734V2.67359ZM63.5671 10.4305V19.8423H64.0325C64.4954 19.8423 64.4979 19.8443 64.4979 20.2043V20.5663H70.167H75.8362L76.0673 18.9969C76.1945 18.1337 76.3223 17.389 76.3513 17.3421C76.3803 17.2951 76.8398 17.2567 77.3724 17.2567H78.3405L78.3987 17.5411C78.4306 17.6975 78.5049 18.1513 78.5638 18.5495C78.7582 19.8635 78.7415 19.8271 79.1651 19.8624C79.4975 19.89 79.5522 19.9332 79.5985 20.2043L79.6517 20.5146L81.4986 20.5429C82.9597 20.5653 83.3354 20.5436 83.2974 20.4395C83.2711 20.367 82.5809 16.1307 81.7638 11.0252L80.2781 1.74276H79.8911C79.5307 1.74276 79.4994 1.71783 79.4361 1.38077L79.3682 1.01878H76.9701H74.5719L73.3005 9.00843C72.6012 13.4028 72.0003 17.0679 71.9652 17.1532C71.9281 17.243 71.8859 17.1451 71.8649 16.9205L71.8286 16.5327H69.9733H68.1178V9.13772V1.74276H67.6524C67.1895 1.74276 67.187 1.74079 67.187 1.38077V1.01878H65.377H63.5671V10.4305ZM56.4307 1.3726C54.9709 1.78961 54.1846 2.55775 53.7379 4.00313C53.5462 4.62338 53.5349 4.98558 53.536 10.4155C53.5373 16.5603 53.5464 16.6879 54.0619 17.72C54.3704 18.3377 55.048 18.9598 55.792 19.3086C56.3375 19.5643 56.4777 19.5836 57.7752 19.5822C58.991 19.5808 59.2485 19.5497 59.7674 19.3416C60.8981 18.8881 61.7528 17.759 62.0061 16.3844C62.0787 15.9901 62.1186 13.8455 62.1176 10.3857C62.1163 5.99998 62.0877 4.88039 61.9631 4.3523C61.4693 2.25741 60.0514 1.21311 57.7276 1.23256C57.2703 1.23649 56.6867 1.29947 56.4307 1.3726ZM1.09779 2.7253V4.01813H2.54575H3.99371V11.7234V19.4286H5.44168H6.88964V11.7262V4.02382L8.36346 3.99506L9.83728 3.96642L9.86634 2.69945L9.89541 1.43248H5.4966H1.09779V2.7253ZM12.2261 1.7169C12.1942 1.87338 11.5617 5.81774 10.8206 10.4823C10.0794 15.1468 9.44933 19.068 9.42047 19.1959C9.36814 19.4276 9.37342 19.4286 10.6608 19.4286C11.9178 19.4286 11.9549 19.4222 12.003 19.1959C12.0302 19.0679 12.1256 18.4512 12.2148 17.8255C12.3042 17.1998 12.4 16.5831 12.4279 16.4551C12.4781 16.225 12.498 16.2224 14.2219 16.2224H15.9653L16.0201 16.5068C16.0503 16.6632 16.1593 17.3847 16.2622 18.1099L16.4495 19.4286H17.8866H19.3238L19.2619 19.0925C19.2278 18.9076 18.5938 14.9632 17.8529 10.3271C17.1121 5.69104 16.4822 1.79313 16.4533 1.66519C16.4011 1.43341 16.3926 1.43248 14.3425 1.43248H12.2842L12.2261 1.7169ZM18.8871 2.7253V4.01813H20.335H21.783V11.7234V19.4286H23.2309H24.6789V11.7262V4.02382L26.1527 3.99506L27.6265 3.96642L27.6556 2.69945L27.6847 1.43248H23.2859H18.8871V2.7253ZM28.7541 1.57676C28.7237 1.65609 28.7171 4.9955 28.7394 8.99757C28.7837 16.9302 28.7688 16.727 29.393 17.874C29.9263 18.854 30.8909 19.4578 32.2434 19.6585C34.1067 19.9351 35.8845 19.2186 36.6009 17.9024C37.1951 16.8106 37.1935 16.8366 37.1935 8.80572V1.43248H35.9046H34.6157L34.5859 8.74987C34.5568 15.8924 34.551 16.0759 34.3457 16.4292C34.0514 16.9357 33.5453 17.1791 32.9255 17.1123C32.3923 17.0549 32.1004 16.8957 31.8316 16.5163C31.6764 16.2971 31.6575 15.5695 31.6316 8.85329L31.6032 1.43248H30.2063C29.1069 1.43248 28.7976 1.4632 28.7541 1.57676ZM43.1922 10.4305V19.4286H45.9738C48.4582 19.4286 48.8265 19.4066 49.4215 19.2229C50.5727 18.8673 51.3147 18.1522 51.7301 16.9981C51.9701 16.3312 52.0675 13.4102 51.8812 12.4637C51.6653 11.3661 51.1281 10.5669 50.2577 10.0479L49.9282 9.85135L50.4128 9.49453C50.7671 9.23369 50.9947 8.94379 51.2594 8.41632L51.6214 7.69503V5.9341C51.6214 3.88254 51.5042 3.39457 50.827 2.62519C50.3479 2.08086 49.6986 1.71793 48.9014 1.54873C48.5792 1.48047 47.2895 1.43248 45.7727 1.43248H43.1922V10.4305ZM63.9808 10.4305V19.4286H67.7558H71.5309V18.1895V16.9503L69.1779 16.9225L66.825 16.8947L66.7985 9.16357L66.7719 1.43248H65.3764H63.9808V10.4305ZM74.8939 1.56176C74.8451 1.70697 72.048 19.1663 72.048 19.3263C72.048 19.3883 72.5524 19.4286 73.3265 19.4286H74.605L74.7742 18.3168C74.8674 17.7052 74.9732 16.9838 75.0095 16.7137L75.0755 16.2224H76.8473H78.6192L78.8494 17.7904C78.9761 18.6528 79.0969 19.3755 79.1179 19.3965C79.1388 19.4175 79.7803 19.4217 80.5435 19.4057L81.9312 19.3769L80.9285 13.1196C80.3769 9.67812 79.7295 5.64068 79.4895 4.14741L79.0535 1.43248H76.9954C75.4412 1.43248 74.9268 1.46413 74.8939 1.56176ZM56.8554 4.07646C56.682 4.2224 56.4925 4.51323 56.4343 4.72287C56.3683 4.96055 56.3283 7.14883 56.328 10.534C56.3276 15.4998 56.3431 15.9941 56.5085 16.3185C57.0356 17.3523 58.4914 17.4154 59.0645 16.4292C59.2691 16.0773 59.2749 15.9111 59.2749 10.4305C59.2749 5.2368 59.2605 4.76755 59.0921 4.45945C58.849 4.01461 58.4239 3.81128 57.7365 3.81128C57.2799 3.81128 57.1097 3.86247 56.8554 4.07646ZM46.0881 6.39693V8.77572L46.8896 8.77552C48.4423 8.77521 48.881 8.25177 48.88 6.40086C48.8793 5.08321 48.7669 4.63207 48.3525 4.28331C48.063 4.03975 47.9579 4.01813 47.0627 4.01813H46.0881V6.39693ZM76.7709 5.05239C76.6187 5.80895 75.4629 13.6732 75.4987 13.7088C75.5193 13.7295 76.1386 13.7333 76.8749 13.7174L78.2136 13.6885L77.5665 9.39628C76.7766 4.15755 76.8597 4.61117 76.7709 5.05239ZM13.9847 5.98643C13.8865 6.63884 13.5863 8.63868 13.3174 10.4305L12.8287 13.6885L14.1655 13.7174C14.9007 13.7333 15.5195 13.7291 15.5406 13.7081C15.5938 13.6548 14.3416 5.2551 14.243 5.00388C14.1886 4.86539 14.1062 5.17919 13.9847 5.98643ZM58.2208 4.95C58.0962 5.00016 57.91 5.16967 57.8071 5.32667C57.6326 5.593 57.6201 5.98074 57.6201 11.1154C57.6201 14.1423 57.6554 16.6541 57.6985 16.6972C57.7416 16.7404 57.951 16.7326 58.1639 16.68C58.4571 16.6076 58.5948 16.4967 58.7317 16.2224C58.8969 15.8918 58.9126 15.397 58.9127 10.5166C58.9128 7.57743 58.8847 5.09914 58.8501 5.00916C58.7811 4.8294 58.5694 4.80954 58.2208 4.95ZM47.3292 6.70183C47.3292 8.52616 47.3297 8.5275 47.9509 8.20626C48.3657 7.99176 48.4859 7.50338 48.4472 6.19007L48.4152 5.1041L47.8722 5.07287L47.3292 5.04153V6.70183ZM14.5562 11.4131C14.488 11.8682 14.4041 12.5082 14.3695 12.8352L14.3068 13.4299H14.6663C14.8641 13.4299 15.05 13.4057 15.0795 13.3762C15.1265 13.3293 14.8049 10.9627 14.7144 10.6891C14.6956 10.6322 14.6245 10.958 14.5562 11.4131ZM77.294 10.8442C77.1943 11.1064 76.9184 13.258 76.9732 13.3465C77.0015 13.3923 77.1848 13.4299 77.3806 13.4299C77.6827 13.4299 77.7354 13.3947 77.7297 13.1972C77.7147 12.6764 77.3488 10.7003 77.294 10.8442ZM46.0881 14.1654V16.9692L47.1999 16.9279C48.4094 16.8828 48.6327 16.8002 48.9462 16.2826C49.1139 16.0056 49.1392 15.7403 49.1392 14.2573C49.1392 12.7371 49.116 12.5066 48.9271 12.1466C48.6062 11.535 48.1903 11.3614 47.0464 11.3614H46.0881V14.1654ZM47.3292 14.4642V16.5327H47.7371C48.0191 16.5327 48.2347 16.4556 48.4352 16.2833L48.7254 16.034L48.7582 14.3842C48.7969 12.4347 48.78 12.3956 47.8907 12.3956H47.3292V14.4642ZM37.9174 23.3682C33.5497 23.6741 29.0777 24.489 25.4538 25.6394C24.0379 26.0888 23.299 26.4453 23.189 26.7322C23.0867 26.9987 23.1766 27.0106 23.6124 26.7883C25.6087 25.7699 30.9361 24.5523 36.1592 23.9208C39.1717 23.5566 45.2227 23.6107 48.9323 24.0351C53.0862 24.5102 58.5607 25.8138 60.2316 26.7255C60.9273 27.1051 61.0946 27.0181 60.5931 26.5375C59.6841 25.6666 53.566 24.1562 48.7772 23.6205C45.5756 23.2622 40.9611 23.155 37.9174 23.3682ZM38.4863 23.836C34.529 24.1428 29.7772 24.9449 26.5932 25.8438C25.5613 26.1351 23.5582 26.8661 23.2693 27.0568C23.2017 27.1014 23.1146 27.6786 23.0625 28.4267L22.9724 29.7195L22.5587 29.7469C21.4419 29.8209 18.1747 30.2207 16.8304 30.4478C15.524 30.6686 12.2678 31.3984 12.2678 31.4704C12.2678 31.4841 12.6795 31.8028 13.1827 32.1785C14.0428 32.8208 15.5774 34.334 15.5774 34.5399C15.5774 34.5913 15.2935 35.0548 14.9465 35.5701C14.3313 36.4835 12.8124 39.2864 12.9326 39.2864C12.9657 39.2864 13.4365 39.1018 13.9788 38.8761C15.8525 38.0963 17.9804 37.5647 20.1799 37.327C20.7487 37.2655 22.4242 37.1726 23.9032 37.1203C26.0363 37.045 26.7563 36.9825 27.3855 36.8177C28.3529 36.5644 28.933 36.2787 29.2198 35.914C29.4076 35.6753 29.5245 35.1494 29.3898 35.1494C29.364 35.1494 29.1196 35.3709 28.8468 35.6417C28.0091 36.4726 27.2559 36.6159 22.7655 36.7992C21.3434 36.8572 19.6912 36.9787 19.0939 37.0692C17.7362 37.2751 15.5737 37.8262 14.5084 38.238C13.891 38.4766 13.7123 38.5135 13.7587 38.393C13.9045 38.0128 15.1271 35.9662 15.5948 35.3194L16.1074 34.6102L15.8449 34.2334C15.4962 33.7329 14.5547 32.7704 13.7979 32.1405C13.4303 31.8346 13.2401 31.613 13.3216 31.5855C14.4861 31.1931 19.3893 30.4045 21.7313 30.233C22.1863 30.1997 22.675 30.1487 22.8172 30.1196C22.9757 30.0873 23.0358 30.1031 22.9724 30.1605C22.9155 30.212 22.2174 30.3098 21.421 30.3778C20.6246 30.4457 19.2982 30.5984 18.4734 30.7169C16.9294 30.9388 13.6298 31.5808 13.5323 31.6785C13.5021 31.7087 13.6124 31.837 13.7775 31.9638C14.3498 32.403 15.4953 33.5486 15.8645 34.0511C16.2883 34.6277 16.3398 34.4386 15.3627 35.8936C14.6897 36.8959 13.9823 38.1395 14.0479 38.205C14.0729 38.2301 14.5736 38.0889 15.1604 37.8913C17.5733 37.0787 19.7076 36.7653 23.9549 36.6C26.843 36.4876 27.6812 36.3533 28.4172 35.8853C28.9008 35.5779 29.1909 35.1567 29.0935 34.9032C28.9067 34.4162 27.1532 34.4428 25.2285 34.962C23.945 35.3082 23.0219 35.3959 22.9484 35.1786C22.8783 34.9716 23.7857 34.1752 24.5416 33.7803C26.3729 32.8236 29.3751 32.0746 33.5218 31.5399C37.6672 31.0053 41.8033 30.8065 44.7435 31.0006C51.5108 31.4472 56.5037 32.3632 59.1757 33.6483C60.0123 34.0508 60.9814 34.8614 60.9814 35.159C60.9814 35.453 60.5131 35.4158 58.8485 34.989C57.2262 34.5733 56.0679 34.4483 55.4343 34.6207C54.8119 34.7902 54.726 34.9414 55.0117 35.3652C55.586 36.2174 56.6309 36.4769 59.9989 36.6037C64.2976 36.7655 66.213 37.0389 68.6475 37.8384C69.3405 38.066 69.9247 38.2521 69.9456 38.2521C70.0733 38.2521 68.834 36.1481 68.1548 35.212L67.7126 34.6025L68.0445 34.139C68.227 33.8841 68.8527 33.2205 69.4347 32.6642L70.4931 31.6528L69.745 31.4867C67.4875 30.9855 64.1064 30.4753 62.0905 30.3317C61.5343 30.2921 61.0534 30.2177 61.0217 30.1664C60.99 30.1151 61.0728 30.0957 61.2055 30.1234C61.3382 30.1509 61.8424 30.2024 62.326 30.2378C64.8325 30.4209 70.3168 31.3378 70.6282 31.6256C70.6721 31.6663 70.3365 32.0105 69.8826 32.3905C69.1683 32.9884 67.911 34.3745 67.911 34.564C67.911 34.5992 68.2173 35.0827 68.5916 35.6386C69.3464 36.759 70.2373 38.3391 70.1586 38.4177C70.1308 38.4455 69.5787 38.2864 68.9319 38.0638C66.2426 37.1385 64.674 36.9093 59.6369 36.7052C58.2608 36.6494 57.1317 36.5504 56.6746 36.4453C55.8387 36.2532 55.0369 35.795 54.861 35.4092C54.7025 35.0612 54.569 35.0806 54.569 35.4516C54.569 35.8855 55.2205 36.4104 56.0973 36.6831C57.0457 36.9777 58.161 37.0929 60.7372 37.162C63.2496 37.2293 64.9974 37.4202 66.6181 37.8038C67.8221 38.0887 69.3936 38.6042 70.3564 39.03C70.6752 39.1711 70.9567 39.2864 70.9819 39.2864C71.1656 39.2864 69.8298 36.7716 68.9493 35.4596C68.6629 35.033 68.4285 34.6247 68.4284 34.5523C68.4279 34.3371 70.0584 32.7042 70.8496 32.1272C71.2528 31.8332 71.602 31.5785 71.6257 31.5611C71.7888 31.4413 70.7222 31.1515 68.4798 30.7063C66.1749 30.2486 62.6262 29.7746 61.4879 29.7722L61.0117 29.7712L60.9449 28.9799C60.9081 28.5447 60.878 27.9687 60.878 27.6999V27.2112L60.1799 26.8471C58.0859 25.7552 52.8626 24.5661 47.7946 24.0279C46.322 23.8714 39.771 23.7364 38.4863 23.836ZM40.9482 25.8317C40.4402 26.1488 40.2479 26.519 40.2479 27.1803C40.2479 28.2125 40.8779 28.7281 41.9795 28.5977C42.5887 28.5255 42.8819 28.2984 42.8819 27.8987C42.8819 27.7324 42.9588 27.5647 43.0629 27.5041C43.2006 27.4238 43.0962 27.398 42.6261 27.3955C42.0379 27.3925 42.0194 27.4001 42.2383 27.5534C42.7102 27.8839 42.4097 28.4267 41.7548 28.4267C41.1474 28.4267 40.8811 28.0729 40.8318 27.201C40.7958 26.5641 40.8169 26.4733 41.0706 26.1718C41.5119 25.6473 42.2885 25.7292 42.6172 26.3349L42.7702 26.6167L42.7743 26.203C42.7778 25.849 42.7448 25.7857 42.5457 25.7639C42.4177 25.7499 42.0803 25.7131 41.7959 25.6819C41.3901 25.6376 41.2076 25.6698 40.9482 25.8317ZM37.6072 25.8171C36.5954 25.8491 36.2998 25.9195 36.6341 26.0489C36.8288 26.1241 36.8576 26.2457 36.9205 27.2538C36.9879 28.3348 36.9821 28.3819 36.7558 28.5702C36.5239 28.7632 36.5344 28.7646 37.6589 28.6908C38.2846 28.6499 38.8115 28.6013 38.8298 28.5831C38.848 28.5648 38.8458 28.3943 38.8249 28.2039L38.7869 27.8578L38.6704 28.1281C38.4987 28.5264 37.8597 28.6644 37.5628 28.3676C37.382 28.1867 37.3398 27.4419 37.5047 27.3401C37.6654 27.2408 38.0209 27.3884 38.0209 27.5545C38.0209 27.636 38.0728 27.7027 38.1364 27.7027C38.2057 27.7027 38.2269 27.6096 38.1894 27.47C38.1552 27.3419 38.1228 27.0976 38.1176 26.927C38.1123 26.7563 38.083 26.6865 38.0525 26.7718C37.9821 26.969 37.7115 27.1856 37.5357 27.1856C37.441 27.1856 37.4003 27.0188 37.4003 26.6303V26.075L37.7882 26.0097C38.1264 25.9528 38.2057 25.9808 38.4082 26.2289L38.6404 26.5133L38.6409 26.1832C38.6412 26.0017 38.6066 25.8388 38.5638 25.8213C38.5211 25.8037 38.0907 25.8018 37.6072 25.8171ZM43.7197 25.9549C43.9229 26.158 43.9322 26.2404 43.8632 27.2219C43.7825 28.3685 43.7673 28.4267 43.548 28.4267C43.466 28.4267 43.399 28.4732 43.399 28.5301C43.399 28.5887 43.6998 28.6335 44.0943 28.6335C44.7531 28.6335 44.7775 28.625 44.5598 28.4725C44.3816 28.3477 44.3298 28.2094 44.3298 27.858C44.3298 27.6087 44.3755 27.3765 44.4311 27.342C44.645 27.2099 44.9276 27.5031 45.0483 27.9823C45.1167 28.2536 45.2214 28.5344 45.281 28.6063C45.4299 28.7858 45.8281 28.7706 45.9867 28.5793C46.156 28.3753 46.037 28.2545 45.8332 28.4236C45.7069 28.5284 45.6682 28.5263 45.6318 28.4125C45.607 28.3349 45.5319 28.0937 45.4649 27.8764C45.398 27.6591 45.2782 27.4563 45.1985 27.4258C44.9917 27.3464 45.0199 27.2185 45.2582 27.1563C45.5264 27.0861 45.7182 26.6505 45.6321 26.3073C45.5396 25.9389 45.026 25.7376 44.178 25.7376H43.5024L43.7197 25.9549ZM46.5904 26.025C46.8287 26.2161 46.8325 26.2461 46.7589 27.3269C46.6878 28.3707 46.6687 28.441 46.4213 28.5706C46.1818 28.6961 46.2566 28.7167 47.2872 28.8089C47.9076 28.8645 48.45 28.8916 48.4927 28.869C48.5355 28.8466 48.5678 28.6796 48.5649 28.4981L48.5594 28.1681L48.3972 28.4008C48.2705 28.5823 48.1346 28.6335 47.7794 28.6335C47.4015 28.6335 47.3095 28.5939 47.2385 28.4008C47.1043 28.0364 47.2176 27.3672 47.4014 27.4377C47.4848 27.4697 47.5972 27.4958 47.6513 27.4958C47.7054 27.4958 47.7916 27.6005 47.8431 27.7285C47.9304 27.9457 47.9371 27.9406 47.9446 27.651C47.949 27.4803 47.9791 27.2243 48.0117 27.0821L48.0708 26.8236L47.8723 27.0671C47.4734 27.5569 47.089 27.1238 47.2728 26.3915C47.3291 26.1675 47.3841 26.1432 47.7722 26.1714C48.1081 26.1958 48.2318 26.2565 48.3104 26.4357C48.4519 26.7582 48.5703 26.7265 48.5703 26.3664C48.5703 26.0689 48.5599 26.0634 47.8722 25.9993C47.4883 25.9635 46.9879 25.9106 46.7604 25.8818L46.3467 25.8294L46.5904 26.025ZM44.3988 26.0134C44.3609 26.0513 44.3298 26.3023 44.3298 26.5712C44.3298 27.1168 44.4722 27.2443 44.8996 27.0818C45.1122 27.0009 45.1573 26.9147 45.1573 26.5883C45.1573 26.3707 45.1014 26.1368 45.0331 26.0686C44.8993 25.9347 44.5112 25.901 44.3988 26.0134ZM33.0047 26.2984C32.4437 26.3936 32.3331 26.439 32.5132 26.5C32.7877 26.593 32.8318 26.7422 32.9341 27.9253C33.0198 28.9167 33.0029 29.0472 32.7893 29.0472C32.7086 29.0472 32.6427 29.0975 32.6427 29.1588C32.6427 29.2254 32.7577 29.2478 32.9271 29.2141C33.0835 29.1831 33.3892 29.1271 33.6064 29.0896C33.9849 29.0244 33.9914 29.0166 33.7629 28.9027C33.5136 28.7784 33.3046 28.0473 33.4689 27.874C33.6483 27.6846 33.9454 27.8784 34.1573 28.3232C34.5168 29.0777 34.7368 29.2137 35.0659 28.8847C35.2747 28.6758 35.2848 28.4579 35.0778 28.6298C34.8767 28.7966 34.7509 28.7027 34.6764 28.3301C34.6426 28.1609 34.4963 27.9447 34.3514 27.8498L34.088 27.6771L34.3479 27.4363C34.8185 27.0002 34.6223 26.3403 33.9872 26.2232C33.845 26.1969 33.4029 26.2308 33.0047 26.2984ZM49.2374 26.2899C49.4079 26.4145 49.4193 26.5258 49.3515 27.3931C49.2647 28.5033 49.1637 28.8404 48.9176 28.8404C48.8214 28.8404 48.7686 28.8662 48.8002 28.898C48.8602 28.958 50.967 29.2733 51.0061 29.2281C51.0183 29.2139 51.0608 29.0511 51.1004 28.8662C51.1781 28.5035 51.0113 28.3846 50.9191 28.7369C50.8753 28.9049 50.778 28.9438 50.4026 28.9438C49.7686 28.9438 49.6647 28.7914 49.7493 27.9864C49.8954 26.5949 49.9271 26.4718 50.1588 26.3935C50.3448 26.3305 50.3141 26.3061 49.9666 26.2409C49.739 26.1981 49.4392 26.1605 49.3004 26.1573C49.0643 26.1517 49.0602 26.1603 49.2374 26.2899ZM33.3869 26.4447C33.2881 26.5089 33.271 26.6774 33.3234 27.0714C33.3901 27.5748 33.4124 27.6083 33.6619 27.5789C33.8198 27.5604 33.9894 27.4394 34.0767 27.2831C34.3516 26.7911 33.8296 26.1568 33.3869 26.4447ZM51.7765 26.5726C51.7765 26.6132 51.8527 26.6756 51.9458 26.7112C52.1301 26.782 52.1189 27.0662 51.877 28.4525C51.7769 29.0263 51.7204 29.1506 51.559 29.1506C51.2092 29.1506 51.3515 29.3285 51.7507 29.3902C51.964 29.4232 52.2549 29.4793 52.3971 29.5149C52.6427 29.5764 52.6459 29.5718 52.4611 29.4214C52.3024 29.2924 52.2758 29.1662 52.3168 28.7392C52.3445 28.4511 52.3855 28.1972 52.4079 28.1749C52.4304 28.1528 52.7641 28.2055 53.1495 28.2921L53.8501 28.4495L53.7868 28.826C53.6792 29.4659 53.6309 29.5643 53.4244 29.5643C53.0731 29.5643 53.2103 29.7416 53.6123 29.8072C53.8257 29.842 54.1398 29.9014 54.3105 29.9393L54.6207 30.0079L54.3744 29.8052L54.1281 29.6025L54.3227 28.4759C54.5027 27.4335 54.5366 27.3443 54.7759 27.2823L55.0344 27.2152L54.7242 27.1387C54.5535 27.0965 54.2536 27.0213 54.0577 26.9715C53.6225 26.8608 53.5778 26.892 53.8365 27.1261C53.9901 27.2652 54.0228 27.3937 53.9788 27.6857C53.9473 27.8941 53.8868 28.103 53.8445 28.15C53.8021 28.197 53.4824 28.1793 53.134 28.1107C52.5054 27.987 52.5005 27.9833 52.5005 27.6307C52.5005 27.191 52.6605 26.8753 52.8834 26.8753C52.9762 26.8753 53.0179 26.8411 52.9762 26.7994C52.8673 26.6906 51.7765 26.4844 51.7765 26.5726ZM30.3749 27.0563C30.3178 27.2696 30.1722 27.8863 30.0515 28.4267C29.9024 29.0933 29.7635 29.4683 29.6195 29.5928C29.3215 29.8505 29.4163 29.8848 30.009 29.7334C30.4229 29.6277 30.4773 29.5904 30.2898 29.5413C30.13 29.4994 30.0571 29.4025 30.0571 29.2318C30.0571 28.8526 30.2721 28.6472 30.7464 28.5734C31.1558 28.5098 31.186 28.5234 31.3533 28.8469C31.5204 29.1703 31.5199 29.1942 31.3422 29.3242C31.1133 29.4915 31.2309 29.4954 31.9393 29.3434C32.3856 29.2478 32.4466 29.2109 32.2683 29.145C32.138 29.0968 31.7656 28.5792 31.3481 27.8662C30.9625 27.2074 30.609 26.6684 30.5628 26.6684C30.5166 26.6684 30.432 26.843 30.3749 27.0563ZM27.0889 27.5873C26.4793 27.7841 26.2984 27.9095 26.6238 27.9095C26.8582 27.9095 26.9873 28.2434 27.2747 29.5923C27.392 30.1428 27.3865 30.2007 27.204 30.3388C26.9401 30.5385 27.0303 30.5321 27.9123 30.2883C28.8383 30.0325 29.1677 29.8017 29.2099 29.3792C29.2465 29.0124 28.9413 28.6335 28.6091 28.6335C28.3638 28.6335 28.3418 28.5022 28.5574 28.3232C28.6427 28.2524 28.7125 28.0871 28.7125 27.956C28.7125 27.3923 28.1137 27.2563 27.0889 27.5873ZM30.4243 27.4872C30.3922 27.5394 30.3374 27.7881 30.303 28.0399L30.2402 28.4977L30.5636 28.4502C31.0009 28.3861 31.0314 28.297 30.7828 27.8096C30.5586 27.37 30.5189 27.3343 30.4243 27.4872ZM27.4096 27.7435C27.3192 27.979 27.5667 28.7369 27.734 28.7369C27.9342 28.7369 28.2988 28.3654 28.2988 28.1613C28.2988 27.8252 28.0881 27.5993 27.7748 27.5993C27.6044 27.5993 27.44 27.6642 27.4096 27.7435ZM55.9233 28.7887C55.3632 29.5061 55.0071 29.8746 54.874 29.8746C54.5361 29.8746 54.6489 30.0417 55.0723 30.1686C55.5982 30.3261 55.6856 30.3197 55.442 30.1413C55.2442 29.9963 55.2445 29.9899 55.463 29.7017C55.7 29.3891 55.9366 29.362 56.4195 29.5923C56.6275 29.6916 56.6966 29.8095 56.7213 30.1081C56.7497 30.4489 56.726 30.4952 56.5231 30.4952C56.3964 30.4952 56.3229 30.5253 56.3597 30.5621C56.412 30.6144 57.4184 30.9938 57.5449 31.0089C57.5604 31.0108 57.5042 30.9071 57.4201 30.7787C57.298 30.5923 56.9478 28.4096 56.9478 27.8351C56.9478 27.5495 56.7385 27.7444 55.9233 28.7887ZM56.1849 28.7184C56.0357 28.9339 55.9136 29.1379 55.9136 29.1719C55.9136 29.223 56.4795 29.4609 56.6012 29.4609C56.6824 29.4609 56.6307 28.4346 56.5469 28.3829C56.4971 28.3521 56.3342 28.5031 56.1849 28.7184ZM27.7276 28.9476C27.6274 29.1099 27.7785 29.8467 27.9395 29.9803C28.0461 30.0688 28.153 30.0637 28.371 29.9596C28.9425 29.687 28.7239 28.8404 28.082 28.8404C27.9236 28.8404 27.7641 28.8887 27.7276 28.9476ZM39.624 30.4523C39.3964 30.4745 38.5354 30.5416 37.7106 30.6014C30.618 31.1151 25.0101 32.4383 23.2267 34.019C22.8055 34.3924 22.9867 34.3151 23.6584 33.835C25.8796 32.2473 31.9904 31.0121 39.7432 30.5836C42.2958 30.4425 44.8066 30.5378 48.4756 30.9151C54.8948 31.5752 58.7426 32.5877 60.6886 34.1289C60.9065 34.3016 61.0849 34.3959 61.0849 34.3386C61.0849 34.1912 59.7725 33.3367 59.0523 33.0153C56.6324 31.9351 52.6551 31.1521 47.0189 30.6466C45.2961 30.4921 40.5033 30.3661 39.624 30.4523Z" fill="#10509E"/>
</svg>
