<svg width="345" height="40" viewBox="0 0 345 40" fill="none" xmlns="http://www.w3.org/2000/svg">
<g clip-path="url(#clip0_47_16)">
<path fill-rule="evenodd" clip-rule="evenodd" d="M36.6 0H0V36.4782H36.6V0ZM23.8525 12.6743H31.38L31.3775 23.6843H23.85V31.109H12.7225V23.6843H5.19375V12.6743H12.725V5.24462H23.8525V12.6743Z" fill="#10509E"/>
<path d="M68.4337 22.4286H61.2187L59.0374 31.1564H49.7324L56.4699 5.05408H72.7999C78.2562 5.05408 82.2912 8.14355 82.2912 12.0988C82.2912 19.1025 75.7412 22.4286 68.4337 22.4286ZM67.5774 9.86644H64.3974L62.4037 17.615H64.8724C68.9549 17.615 72.8474 16.8726 72.8474 12.8812C72.8474 10.726 69.9512 9.86644 67.5774 9.86644ZM106.21 25.3636C105.451 28.2202 105.31 29.9418 105.215 31.1564H96.1974C96.3399 30.176 96.7674 28.4942 97.0999 26.9682C95.1049 29.6291 92.5437 31.5862 88.2724 31.5862C82.9562 31.5862 80.4887 28.9253 80.4887 25.2079C80.4887 15.5782 91.3137 10.9627 100.339 10.9627C103.564 10.9627 107.939 11.4311 109.689 12.0191L106.212 25.3636H106.21ZM98.8062 15.4636C94.4862 15.4636 89.7874 19.1822 89.7874 24.3085C89.7874 25.7561 90.4062 26.9296 92.3999 26.9296C95.3424 26.9296 97.7624 23.4477 99.0449 19.1037L100.089 15.6206C99.6637 15.496 99.1887 15.4586 98.8137 15.4586M134.939 27.7418C132.614 36.5368 128.626 39.9876 116.951 39.9876C113.251 39.9876 109.739 39.4394 107.701 38.8913L109.276 34.0702C111.839 35.1291 114.264 35.4406 116.439 35.4406C122.476 35.4406 124.564 33.0861 125.601 29.7225L126.264 27.6048C123.975 30.0477 121.55 31.144 117.662 31.144C112.346 31.144 109.827 28.64 109.827 25.1955C109.827 15.5284 121.032 10.9914 130.1 10.9914C133.137 10.9914 137.266 11.4598 139.069 12.0079L134.941 27.7293L134.939 27.7418ZM128.251 15.4836C123.939 15.4836 119.139 19.1959 119.139 24.4779C119.139 25.9604 119.664 27.0566 121.614 27.0566C125.176 27.0566 127.414 22.7961 128.401 19.2707L129.451 15.633C129.026 15.5085 128.651 15.4711 128.264 15.4711M163.489 26.8573C163.164 28.2276 162.776 29.7126 162.639 31.1215H154.376L155.039 27.6396C153.051 29.7948 150.439 31.5563 146.401 31.5563C142.514 31.5563 139.714 30.2233 139.714 26.8598C139.714 26.1559 139.764 25.4521 139.951 24.7458L143.374 11.329H152.157L149.12 23.2259C148.976 23.8114 148.832 24.4368 148.832 25.0248C148.832 26.2419 149.545 26.9806 151.255 26.9806C154.005 26.9806 155.242 24.8305 155.717 22.9132L158.662 11.3302H167.441L163.504 26.8648L163.489 26.8573ZM176.926 23.2197C176.739 23.5685 176.739 24.0419 176.739 24.3907C176.739 26.8573 179.501 27.6421 182.051 27.6421C184.764 27.6421 187.664 26.8199 189.889 25.6028L189.25 29.8982C186.165 31.1141 182.984 31.58 179.14 31.58C173.63 31.58 167.79 29.9792 167.79 24.6909C167.79 16.5935 175.052 10.9976 184.259 10.9976C188.53 10.9976 193.846 12.0565 193.846 16.1675C193.846 22.2343 182.646 23.2484 176.902 23.2484M183.74 14.8769C180.61 14.8769 178.52 17.5017 177.522 19.693C181.181 19.693 186.114 18.9081 186.114 16.5636C186.114 15.3527 185.076 14.8819 183.739 14.8819M233.351 31.1838H224.901L230.401 9.65715L216.976 31.1813H209.151L206.814 9.61728L201.314 31.1813H193.251L200 5.07401H213.75L215.362 22.917L226.234 5.06529H240.092M248.505 23.2658C248.314 23.6146 248.314 24.088 248.314 24.4368C248.314 26.9034 251.064 27.6808 253.626 27.6808C256.339 27.6808 259.226 26.8586 261.464 25.6464L260.851 29.9169C257.764 31.1315 254.589 31.5987 250.739 31.5987C245.239 31.5987 239.401 29.9954 239.401 24.7134C239.401 16.6159 246.664 11.0163 255.876 11.0163C260.147 11.0163 265.464 12.0677 265.464 16.1787C265.464 22.2455 254.261 23.2583 248.519 23.2583M255.356 14.8819C252.219 14.8819 250.131 17.4979 249.136 19.6905C252.795 19.6905 257.73 18.9056 257.73 16.5636C257.73 15.3478 256.69 14.8819 255.355 14.8819M292.292 17.8555L288.876 31.1602H280.101L283.139 19.3442C283.285 18.7175 283.476 18.132 283.476 17.544C283.476 16.373 282.814 15.5882 281.104 15.5882C278.349 15.5882 277.02 17.7434 276.546 19.6618L273.602 31.1651H264.822L268.81 15.6679C269.191 14.2602 269.522 12.8488 269.666 11.4H277.971L277.212 14.8881C279.537 12.1972 281.862 11.0138 285.896 11.0138C289.696 11.0138 292.589 12.3467 292.589 15.7103C292.585 16.4204 292.489 17.118 292.301 17.8654M305.214 31.6061C299.664 31.6061 294.107 29.6129 294.107 24.3683C294.107 16.2709 300.801 11.0262 310.53 11.0262C316.086 11.0262 321.639 12.9447 321.639 18.2267C321.639 26.2868 314.899 31.6136 305.217 31.6136M309.247 15.6056C305.21 15.6056 303.316 21.2365 303.316 23.9397C303.316 25.6589 304.071 27.0292 306.397 27.0292C310.435 27.0292 312.426 21.3984 312.426 18.6951C312.426 16.9386 311.57 15.6056 309.245 15.6056M343.332 16.1538C341.291 15.4474 339.107 14.979 336.875 14.979C335.362 14.979 332.462 15.2157 332.462 16.8601C332.462 19.4438 343.187 19.171 343.187 24.377C343.187 30.2819 335.65 31.6149 329.9 31.6149C326.962 31.6149 324.069 31.3034 321.262 30.5971L322.875 26.0127C324.962 26.947 327.25 27.5375 329.662 27.5375C331.325 27.5375 334.65 27.2261 334.65 25.4272C334.65 22.8858 324.162 23.2795 324.162 17.8779C324.162 12.3592 331.994 10.9889 337.312 10.9889C339.875 10.9889 342.577 11.3838 345.05 11.9307L343.337 16.1612L343.332 16.1538Z" fill="#10509E"/>
</g>
<defs>
<clipPath id="clip0_47_16">
<rect width="345" height="40" fill="white"/>
</clipPath>
</defs>
</svg>
