<svg width="115" height="40" viewBox="0 0 115 40" fill="none" xmlns="http://www.w3.org/2000/svg">
<g clip-path="url(#clip0_47_49)">
<path d="M2.4341 30.8628L6.40452 28.558C6.86073 29.2443 7.37004 29.8893 7.92467 30.4832C10.4556 33.1931 13.9422 34.9885 17.7848 34.9885C21.6274 34.9885 25.114 33.1931 27.6449 30.4832C28.1936 29.8952 28.6971 29.26 29.1493 28.5816L33.1197 30.8864C32.4453 31.964 31.6744 32.967 30.8189 33.8814C27.4738 37.4624 22.8643 39.6787 17.7828 39.6787C12.7013 39.6787 8.09181 37.4624 4.74673 33.8814C3.88539 32.9591 3.11058 31.9483 2.43213 30.8608" fill="#10509E"/>
<path d="M14.6774 25.85C13.8888 25.2266 13.2792 24.204 12.8466 22.7802L8.34521 8.39905H13.1514L17.348 22.2335C17.4286 22.4754 17.523 22.8825 17.8435 22.8825C18.0205 22.8825 18.1739 22.6662 18.3017 22.2335L22.4216 8.39905H27.2278L22.8031 22.7802C22.3705 24.204 21.7726 25.2286 21.0096 25.85C20.2466 26.4734 19.1906 26.7841 17.8435 26.7841C16.4965 26.7841 15.466 26.4714 14.6774 25.85Z" fill="#10509E"/>
<path d="M52.5433 25.1737C51.2198 26.216 49.7528 26.7371 48.1422 26.7371C47.0272 26.7371 46.0302 26.4873 45.1492 25.9878C44.2681 25.4883 43.5759 24.8059 43.0725 23.9446C42.5691 23.0813 42.3174 22.104 42.3174 21.0106C42.3174 19.9171 42.5534 19.0125 43.0233 18.1847C43.4934 17.3587 44.1403 16.7078 44.9604 16.2319C45.7804 15.7579 46.7106 15.52 47.7529 15.52C48.7951 15.52 49.741 15.7697 50.5473 16.2693C51.3516 16.7687 51.9809 17.459 52.4352 18.34C52.8874 19.221 53.1136 20.2397 53.1136 21.3979V21.7323H43.751C43.8375 22.4874 44.0872 23.1482 44.5002 23.7165C44.9132 24.2848 45.4441 24.7273 46.0912 25.0439C46.7381 25.3605 47.4637 25.5178 48.27 25.5178C49.5935 25.5178 50.8089 25.0793 51.916 24.2022L52.5413 25.1737H52.5433ZM43.7096 20.5897H51.8747C51.8098 19.8208 51.5974 19.1482 51.2375 18.572C50.8776 17.9959 50.4057 17.5475 49.8197 17.223C49.2336 16.8985 48.567 16.7373 47.8197 16.7373C47.0724 16.7373 46.3861 16.8985 45.7863 17.223C45.1865 17.5455 44.7047 17.9979 44.3409 18.576C43.9771 19.1541 43.7667 19.8247 43.7096 20.5878" fill="#10509E"/>
<path d="M65.1368 26.5206H63.8094V20.4815C63.8094 19.331 63.4928 18.4205 62.8596 17.7479C62.2263 17.0754 61.3749 16.7391 60.3031 16.7391C59.2313 16.7391 58.3071 17.0931 57.6385 17.8011C56.9698 18.509 56.6355 19.4529 56.6355 20.6329V26.5206H55.3081V15.7362H56.4841L56.5274 17.7637C56.901 17.038 57.4261 16.4815 58.1025 16.098C58.7771 15.7126 59.5833 15.5219 60.5174 15.5219C61.955 15.5219 63.0838 15.9525 63.9038 16.8158C64.7238 17.6792 65.1329 18.8728 65.1329 20.3969V26.5226L65.1368 26.5206Z" fill="#10509E"/>
<path d="M77.3664 25.1737C76.0431 26.216 74.5755 26.7371 72.9651 26.7371C71.8503 26.7371 70.8529 26.4873 69.9723 25.9878C69.091 25.4883 68.3992 24.8059 67.8955 23.9446C67.3919 23.0813 67.1401 22.104 67.1401 21.0106C67.1401 19.9171 67.3762 19.0125 67.8464 18.1847C68.3165 17.3587 68.9631 16.7078 69.7814 16.2319C70.6018 15.7579 71.5316 15.52 72.5742 15.52C73.6162 15.52 74.5618 15.7697 75.3683 16.2693C76.1729 16.7687 76.8018 17.459 77.2562 18.34C77.7087 19.221 77.9349 20.2397 77.9349 21.3979V21.7323H68.5723C68.6588 22.4874 68.908 23.1482 69.3211 23.7165C69.7342 24.2848 70.2654 24.7273 70.9119 25.0439C71.5592 25.3605 72.2851 25.5178 73.091 25.5178C74.4149 25.5178 75.63 25.0793 76.7369 24.2022L77.3624 25.1737H77.3664ZM68.5329 20.5897H76.6975C76.6326 19.8208 76.4201 19.1482 76.0608 18.572C75.7008 17.9959 75.2287 17.5475 74.6424 17.223C74.0569 16.8985 73.39 16.7373 72.6424 16.7373C71.8955 16.7373 71.209 16.8985 70.6096 17.223C70.0096 17.5455 69.5277 17.9979 69.1637 18.576C68.8005 19.1541 68.59 19.8247 68.5329 20.5878" fill="#10509E"/>
<path d="M81.4631 26.5207H80.1353V15.7363H81.3116L81.3648 18.1198C81.7248 17.2859 82.2572 16.6449 82.9654 16.1945C83.6736 15.7461 84.5012 15.52 85.4513 15.52C85.6244 15.52 85.8008 15.5299 85.9838 15.5476C86.1667 15.5652 86.3497 15.5927 86.5287 15.6282L86.3674 16.8258C86.0153 16.755 85.6638 16.7176 85.3117 16.7176C84.5641 16.7176 83.8972 16.9005 83.3156 17.2682C82.7333 17.634 82.2789 18.1394 81.951 18.7844C81.6225 19.4275 81.4612 20.1708 81.4612 21.0125V26.5247L81.4631 26.5207Z" fill="#10509E"/>
<path d="M92.375 26.4459C91.354 26.4459 90.4379 26.208 89.6235 25.7282C88.8117 25.2503 88.1684 24.5994 87.6983 23.7754C87.2268 22.9514 86.9927 22.0232 86.9927 20.9869C86.9927 19.9505 87.2287 19.0105 87.6983 18.1885C88.1684 17.3645 88.8117 16.7136 89.6235 16.2357C90.436 15.7579 91.3566 15.5179 92.3848 15.5179C93.3186 15.5179 94.1625 15.7225 94.914 16.1335C95.6648 16.5425 96.2668 17.0932 96.7212 17.7834L96.7861 15.7343H97.9717V26.2493C97.9717 27.4646 97.7415 28.5108 97.2812 29.3878C96.8215 30.2649 96.1645 30.9414 95.3068 31.4153C94.4517 31.8893 93.4307 32.1272 92.2451 32.1272C90.556 32.1272 89.1068 31.5549 87.8989 30.4124L88.5245 29.3544C89.5173 30.4046 90.7487 30.9296 92.2235 30.9296C93.1363 30.9296 93.9225 30.7369 94.5796 30.3534C95.2359 29.968 95.7455 29.4272 96.1055 28.731C96.4655 28.0329 96.6445 27.2031 96.6445 26.2395V24.265C96.1841 24.9337 95.5842 25.4646 94.8432 25.856C94.1015 26.2473 93.2792 26.444 92.373 26.444M92.4812 25.268C93.2438 25.268 93.9323 25.0949 94.552 24.7508C95.171 24.4067 95.6687 23.9327 96.0464 23.3329C96.4241 22.7332 96.6228 22.0507 96.6445 21.2897V20.6859C96.6228 19.9171 96.4241 19.2307 96.0464 18.6309C95.6687 18.0312 95.173 17.5572 94.5579 17.2131C93.9422 16.867 93.2537 16.6959 92.493 16.6959C91.7317 16.6959 90.9927 16.8847 90.3632 17.2623C89.7337 17.6398 89.2386 18.1511 88.8746 18.7942C88.5107 19.4372 88.3297 20.1688 88.3297 20.9888C88.3297 21.8088 88.5107 22.5306 88.8746 23.1775C89.2386 23.8246 89.7317 24.3358 90.3573 24.7095C90.9828 25.0831 91.6904 25.2699 92.4832 25.2699" fill="#10509E"/>
<path d="M101.602 11.9507C101.35 11.9507 101.14 11.8622 100.97 11.6872C100.801 11.5102 100.717 11.2978 100.717 11.0461C100.717 10.7944 100.801 10.5938 100.97 10.4207C101.14 10.2477 101.35 10.1611 101.602 10.1611C101.854 10.1611 102.078 10.2477 102.255 10.4207C102.432 10.5938 102.519 10.8022 102.519 11.0461C102.519 11.2899 102.43 11.5121 102.255 11.6872C102.08 11.8622 101.862 11.9507 101.602 11.9507ZM102.271 26.5226H100.943V15.7382H102.271V26.5226Z" fill="#10509E"/>
<path d="M113.547 26.5207H112.414L112.305 24.7194C111.945 25.3388 111.443 25.8285 110.795 26.1923C110.148 26.5561 109.411 26.7371 108.585 26.7371C107.822 26.7371 107.142 26.5876 106.542 26.2887C105.942 25.9898 105.468 25.5807 105.124 25.0596C104.778 24.5385 104.606 23.9466 104.606 23.2858C104.606 22.6251 104.793 21.984 105.167 21.453C105.541 20.9201 106.056 20.5012 106.709 20.1964C107.364 19.8916 108.107 19.7382 108.941 19.7382C109.523 19.7382 110.101 19.8129 110.677 19.9643C111.252 20.1158 111.767 20.3282 112.219 20.6015V19.868C112.219 19.2131 112.075 18.6527 111.789 18.1847C111.502 17.7166 111.108 17.3587 110.606 17.1109C110.107 16.8632 109.541 16.7392 108.907 16.7392C108.361 16.7392 107.814 16.8376 107.267 17.0362C106.721 17.2348 106.21 17.5259 105.736 17.9152L105.262 16.7727C105.852 16.3617 106.481 16.051 107.153 15.8386C107.826 15.6262 108.496 15.52 109.165 15.52C110.064 15.52 110.839 15.7029 111.49 16.0706C112.14 16.4364 112.646 16.9575 113.006 17.6282C113.366 18.3007 113.545 19.1011 113.545 20.0273V26.5207H113.547ZM108.801 25.5178C109.427 25.5178 109.993 25.3821 110.5 25.1127C111.008 24.8433 111.415 24.4618 111.724 23.9702C112.032 23.4785 112.197 22.9122 112.219 22.2711V21.9034C111.773 21.5651 111.289 21.3095 110.768 21.1325C110.246 20.9555 109.706 20.867 109.143 20.867C108.231 20.867 107.474 21.0872 106.874 21.5258C106.275 21.9643 105.974 22.5287 105.974 23.219C105.974 23.6496 106.098 24.0409 106.345 24.389C106.593 24.7371 106.931 25.0124 107.36 25.213C107.787 25.4136 108.268 25.5158 108.799 25.5158" fill="#10509E"/>
<path d="M1.32506 5.21538C0.764604 4.65689 0.485352 3.98237 0.485352 3.1938C0.485352 2.40522 0.764604 1.76413 1.32506 1.19188C1.88355 0.619616 2.55807 0.334473 3.34664 0.334473C4.13522 0.334473 4.7763 0.619616 5.34856 1.19188C5.92082 1.76413 6.20598 2.43078 6.20598 3.1938C6.20598 3.95681 5.92082 4.65689 5.34856 5.21538C4.7763 5.77584 4.10965 6.0551 3.34664 6.0551C2.58363 6.0551 1.88355 5.77584 1.32506 5.21538Z" fill="#10509E"/>
<path d="M0.868652 26.2591V8.40112H5.82627V23.0242C5.82627 24.8117 4.37693 26.2591 2.59133 26.2591H0.868652Z" fill="#10509E"/>
<path d="M30.2034 5.21538C29.643 4.65689 29.3638 3.98237 29.3638 3.1938C29.3638 2.40522 29.643 1.76413 30.2034 1.19188C30.7619 0.619616 31.4365 0.334473 32.225 0.334473C33.0136 0.334473 33.6547 0.619616 34.227 1.19188C34.7992 1.76413 35.0844 2.43078 35.0844 3.1938C35.0844 3.95681 34.7992 4.65689 34.227 5.21538C33.6547 5.77584 32.988 6.0551 32.225 6.0551C31.462 6.0551 30.7619 5.77584 30.2034 5.21538Z" fill="#10509E"/>
<path d="M29.7471 23.0221V8.39905H34.7046V26.259H32.982C31.1944 26.259 29.7471 24.8097 29.7471 23.0241" fill="#10509E"/>
</g>
<defs>
<clipPath id="clip0_47_49">
<rect width="114.098" height="40" fill="white"/>
</clipPath>
</defs>
</svg>
