<svg width="137" height="40" viewBox="0 0 137 40" fill="none" xmlns="http://www.w3.org/2000/svg">
<g clip-path="url(#clip0_47_14)">
<path d="M43.1159 0.393722C39.6914 1.883 38.9054 7.2219 41.6844 10.0319C43.1721 11.5211 44.4912 11.8022 46.4562 11.0997C47.7476 10.6501 47.8881 10.6501 48.1687 11.0716C48.758 11.8583 48.8704 11.5773 48.8704 9.58229C48.8704 7.58721 49.2634 6.74423 50.1618 6.74423C50.3861 6.74423 50.5548 6.60374 50.5548 6.46321C50.5548 6.29464 49.572 6.18225 48.1687 6.18225C45.7826 6.18225 45.109 6.4913 46.4562 6.9971C47.6914 7.47482 47.6071 9.49799 46.288 10.4815C44.9123 11.5211 42.7229 10.3128 42.1335 8.17728C41.6844 6.57561 41.7966 3.93427 42.3861 2.66979C43.0598 1.18051 43.6773 0.702819 44.9685 0.702819C46.1756 0.702819 47.467 1.7144 48.0282 3.11938C48.5898 4.44005 48.8704 4.04667 48.8704 1.9673C48.8704 0.0565281 48.5898 -0.477366 48.0844 0.449922C47.86 0.871413 47.7195 0.871413 46.5124 0.449922C44.9404 -0.0839695 44.2387 -0.112069 43.1159 0.393722Z" fill="#10509E"/>
<path d="M51.3965 0.281371C51.3965 0.449971 51.7895 0.646665 52.2387 0.730964L53.0809 0.899562V10.3972L52.2387 10.5658C50.5829 10.903 51.4246 11.2402 53.9231 11.2402C55.4108 11.2402 56.4493 11.1278 56.4493 10.9592C56.4493 10.7906 56.2249 10.6782 55.9439 10.6782C55.0178 10.6782 54.7653 10.0881 54.7653 7.81205V5.62027H56.1125C58.0494 5.62027 58.3861 5.98559 58.6105 8.28972C58.8072 10.3972 59.5089 11.5212 60.6598 11.5212C61.4458 11.5212 62.3442 10.5377 62.3442 9.69473C62.3442 8.79552 62.1194 8.79552 61.7826 9.72282C61.3615 10.8187 60.8846 10.3972 60.5193 8.57073C60.2668 7.33434 59.9581 6.74427 59.3127 6.15416L58.4705 5.39548L59.144 5.22691C60.2668 4.9459 60.9404 4.04671 60.9404 2.86653C60.9404 1.57395 60.1825 0.759065 58.5548 0.309471C57.0947 -0.0839224 51.3965 -0.112022 51.3965 0.281371ZM58.358 1.18056C59.537 2.16404 59.4246 3.96241 58.1337 4.6368C57.6845 4.86159 56.758 5.05829 56.0282 5.05829H54.7653V3.09132C54.7653 1.54585 54.8773 1.09626 55.2703 0.843364C55.8319 0.506169 57.7969 0.730964 58.358 1.18056Z" fill="#10509E"/>
<path d="M63.3546 0.253235C63.2703 0.393733 63.5232 0.590428 63.9443 0.702828C64.3931 0.787127 64.8142 1.04002 64.9266 1.20862C65.039 1.40532 65.151 3.23179 65.151 5.28304C65.151 9.75086 65.3758 10.3972 67.2565 11.0997C69.3896 11.9146 71.5513 11.3244 72.646 9.63847C73.0671 9.02031 73.1791 8.12111 73.2353 4.88968L73.3477 0.899527L74.1899 0.730929C75.6214 0.449931 74.7511 0.000338751 72.7022 0.000338751C70.6248 0.000338751 70.2599 0.253235 71.6071 0.759026L72.4493 1.06812V4.60867C72.4493 9.63847 71.9162 10.6782 69.3615 10.6782C68.5198 10.6782 68.0425 10.5096 67.5371 9.9757C66.8635 9.32937 66.8354 9.18889 66.8354 5.11447V0.899527L67.5371 0.730929C67.93 0.618529 68.2387 0.421833 68.2387 0.281334C68.2387 -0.0839594 63.5513 -0.0839594 63.3546 0.253235Z" fill="#10509E"/>
<path d="M76.3793 0.225173C76.3793 0.39377 76.7723 0.646665 77.2215 0.815263L78.0632 1.09626V10.4253L77.2215 10.7063C75.7338 11.2402 76.3231 11.5212 78.9054 11.5212C81.4882 11.5212 82.0775 11.2402 80.5898 10.7063C79.7476 10.4253 79.7476 10.3972 79.7476 8.31785V6.18229H81.6564C84.0987 6.18229 85.3334 5.59218 85.8951 4.13101C86.2599 3.17562 86.2318 2.95083 85.8388 2.10784C85.081 0.534265 84.0425 0.168973 79.972 0.0565751C77.6707 -0.0277231 76.3793 0.0565751 76.3793 0.225173ZM83.6214 1.57395C84.4074 2.47314 84.4074 3.70952 83.5933 4.66489C83.0598 5.28308 82.6391 5.4517 81.3477 5.56409L79.7476 5.67649V3.42852C79.7476 1.57395 79.8319 1.09626 80.253 0.843364C81.039 0.36567 82.8916 0.759065 83.6214 1.57395Z" fill="#10509E"/>
<path d="M90.4143 0.44994C89.1233 1.01193 88.5055 1.60202 87.8038 2.9508C87.1021 4.35578 87.074 6.71614 87.7476 8.37403C88.9547 11.3244 92.6318 12.4204 94.9054 10.4815C98.1056 7.78392 97.5721 2.19212 93.9513 0.534239C92.576 -0.0839493 91.7057 -0.112049 90.4143 0.44994ZM93.9513 1.43343C95.2984 2.6979 95.6076 7.9244 94.4286 9.49798C92.4917 12.1113 89.6002 10.8187 89.151 7.16572C88.7584 4.21528 89.6002 1.43343 91.0598 0.843338C91.9301 0.478041 93.2215 0.730938 93.9513 1.43343Z" fill="#10509E"/>
<path d="M0.0842106 17.8997C0.168422 18.6022 0.280703 18.6866 1.43158 18.7709C2.10527 18.827 2.8351 18.9957 3.03159 19.1642C3.31229 19.389 3.3965 21.4684 3.3965 28.128C3.3965 37.9347 3.45265 37.6819 1.17895 38.0752C0.140351 38.2438 0.0280703 38.3562 0.0280703 39.0868V39.9017H8.72984V39.1149C8.72984 38.4124 8.5895 38.2719 7.41056 37.9066C6.51229 37.6538 5.95089 37.2884 5.72634 36.8108C5.47372 36.305 5.36144 34.0008 5.3895 28.2404C5.3895 23.9131 5.47372 20.5692 5.586 20.794C5.67018 21.0188 7.10178 25.3742 8.72984 30.4884C11.3404 38.6091 11.7895 39.7612 12.3228 39.8455C12.8562 39.9298 13.165 39.1711 16.1123 30.1512L19.3404 20.3725L19.3685 28.9991C19.3966 34.338 19.2843 37.6819 19.1158 37.7943C18.9755 37.8786 18.2176 38.0471 17.4316 38.1314C16.1123 38.2719 16.0281 38.3281 16.0281 39.1149V39.9017L21.3053 39.8455L26.5545 39.7612L26.6387 39.0306C26.7229 38.3281 26.6387 38.3001 25.179 38.1314C24.3088 38.0471 23.4948 37.9066 23.3264 37.7943C23.158 37.6819 23.0457 34.4223 23.0457 28.5214C23.0457 18.237 22.9053 18.827 25.2632 18.827C26.358 18.827 26.4141 18.7709 26.4141 17.984V17.1411H18.3018L15.8878 24.5032C13.0246 33.2983 13.2211 32.7082 13.1088 32.5677C13.0246 32.5115 11.8737 28.9991 10.5263 24.7841L8.05617 17.1411H0L0.0842106 17.8997Z" fill="#10509E"/>
<path d="M35.4247 26.0767C33.6562 30.9661 32.0001 35.462 31.6913 36.0521C31.1299 37.2041 29.7264 38.2157 28.744 38.2157C28.2106 38.2157 28.0983 38.3843 28.0983 39.0587V39.9017H36.8001V39.0587C36.8001 38.3562 36.6879 38.2157 36.0984 38.2157C35.144 38.2157 34.0211 37.6538 33.8527 37.0637C33.7685 36.8108 33.9931 35.7149 34.3299 34.6471L34.9755 32.7363L42.3861 32.5677L43.144 34.9843C43.6773 36.6141 43.8458 37.4571 43.6493 37.6538C43.4809 37.8223 42.6949 38.019 41.9089 38.1314C40.5335 38.2719 40.4492 38.3281 40.4492 39.1149V39.9017L45.7264 39.8455L50.9754 39.7612L51.0597 39.0025C51.144 38.3281 51.0597 38.2157 50.4704 38.2157C49.2634 38.2157 48.0282 37.6256 47.6352 36.8389C47.4389 36.4455 45.7826 31.8371 43.9581 26.6106L40.6457 17.1411H38.6247L35.4247 26.0767ZM40.2808 26.6668C40.9826 28.7462 41.544 30.4884 41.4879 30.5446C41.4036 30.6008 40.1124 30.6008 38.5405 30.5727L35.7335 30.4884L37.137 26.4701C37.9229 24.2502 38.6528 22.5362 38.765 22.6767C38.8773 22.7891 39.551 24.5874 40.2808 26.6668Z" fill="#10509E"/>
<path d="M52.5193 17.984C52.5193 18.7708 52.5755 18.827 53.6702 18.827C56.0282 18.827 55.8881 18.2651 55.8881 28.3528C55.8881 35.5182 55.8038 37.3727 55.4951 37.6256C55.2984 37.7942 54.5405 38.019 53.8107 38.1033C52.6036 38.2719 52.4912 38.3562 52.5755 39.0306L52.6598 39.7612L57.432 39.8455C65.6845 39.986 68.6036 39.3116 71.0459 36.6422C75.5652 31.7247 74.7792 22.5924 69.5582 18.9956C67.2284 17.4221 65.6283 17.1411 58.6386 17.1411H52.5193V17.984ZM66.1899 19.5295C68.8003 20.8502 69.9231 23.5477 69.9231 28.5214C69.9231 35.3495 67.8738 38.0752 62.7091 38.0752C61.1933 38.0752 60.2949 37.9628 60.0424 37.7099C59.7614 37.4289 59.6776 35.3495 59.6776 28.3528C59.6776 20.6816 59.7333 19.3328 60.0987 19.108C60.323 18.9675 61.4739 18.827 62.6529 18.827C64.365 18.827 65.039 18.9675 66.1899 19.5295Z" fill="#10509E"/>
<path d="M74.1899 17.8997C74.2738 18.6022 74.4143 18.7146 75.5933 18.827C76.3512 18.9113 77.1091 19.1642 77.2777 19.3328C77.7545 19.8105 77.8107 37.176 77.3334 37.6538C77.1653 37.8223 76.3793 38.019 75.5652 38.1314C74.1899 38.3001 74.1056 38.3281 74.1899 39.0306L74.2738 39.7612L84.0144 39.8455L93.7264 39.9017L93.8951 38.581C93.9794 37.8223 94.1194 35.743 94.2318 33.9165L94.4005 30.6288H93.7264C93.1372 30.6288 93.0248 30.8255 92.688 32.371C92.183 34.8719 91.1722 36.5859 89.7688 37.4008C88.7022 37.991 88.253 38.0752 85.2777 38.0752C80.9547 38.0752 81.1229 38.3001 81.2072 32.8768L81.2915 28.8024L82.5548 28.8867C84.9128 29.0834 85.9794 30.095 86.3724 32.5677C86.5124 33.4388 86.681 33.7198 87.074 33.7198C87.5795 33.7198 87.6075 33.4107 87.6075 28.2123C87.6075 23.1825 87.5794 22.7329 87.1302 22.8172C86.8216 22.8734 86.5686 23.2949 86.4286 23.9693C86.3162 24.5593 86.0637 25.2899 85.8951 25.599C85.5021 26.3577 83.509 27.2569 82.218 27.2569H81.151V23.5197C81.151 18.6303 81.0671 18.7146 85.4177 18.8551C90.0494 19.0237 91.1441 19.7824 92.0144 23.5197C92.4636 25.3742 92.5755 25.571 93.1934 25.571H93.867L93.6988 22.3957C93.5864 20.6816 93.5021 18.7709 93.5021 18.1808V17.1411H74.1056L74.1899 17.8997Z" fill="#10509E"/>
<path d="M96.0282 17.956C96.0282 18.7989 96.0563 18.827 97.2915 18.827C99.4251 18.827 99.4251 18.827 99.3408 28.6338C99.2565 38.1033 99.3127 37.8504 97.1791 38.1314C96.5617 38.2157 96.0006 38.4124 96.0006 38.5248C95.8038 39.8174 95.5795 39.7612 100.969 39.8455L106.078 39.9017L106.19 39.0587C106.302 38.2438 106.274 38.2157 105.263 38.2157C104.674 38.2157 103.944 37.9909 103.579 37.7099C102.99 37.2041 102.962 36.9793 102.934 33.1297L102.905 29.0834H105.095C107.172 29.0834 107.341 29.1396 107.958 29.8702C108.66 30.657 108.716 30.9379 109.165 34.7314C109.586 38.4124 110.597 39.7331 113.011 39.6769C115.257 39.6488 116.295 38.4405 116.66 35.3215L116.857 33.7198H115.986C115.172 33.7198 115.116 33.776 115.116 34.7876C115.116 36.052 114.555 36.9793 113.909 36.7265C113.656 36.6422 113.263 35.8554 113.011 34.9281C112.169 31.8371 111.72 30.9661 110.485 29.814C109.783 29.1677 109.081 28.6619 108.885 28.6338C108.688 28.6338 109.193 28.3809 110.036 28.0718C113.095 27.004 114.555 25.2899 114.555 22.7891C114.555 20.5692 113.628 19.108 111.551 18.0684L109.923 17.2816L96.0282 17.113V17.956ZM109.25 19.2766C110.26 19.7824 110.737 21.2717 110.569 23.4354C110.316 26.5544 109.334 27.2569 105.292 27.2569H102.709L102.822 23.5197C102.905 19.4733 103.074 18.9675 104.394 18.7427C105.6 18.5179 108.407 18.827 109.25 19.2766Z" fill="#10509E"/>
<path d="M124.997 17.6469C119.944 19.4733 117.053 26.0486 118.625 32.1462C120.477 39.2835 128.057 42.1215 133.222 37.5695C137.011 34.2256 138.134 27.6784 135.748 22.6486C134.906 20.8783 132.857 18.7709 131.2 17.956C129.46 17.113 126.878 16.9725 124.997 17.6469ZM130.302 19.5014C132.239 20.8221 133.278 24.8684 132.997 29.9264C132.8 33.2421 132.239 35.3215 131.2 36.5578C129.432 38.6653 126.008 38.7777 124.183 36.7826C123.2 35.7149 122.723 34.2256 122.359 31.1909C121.713 25.599 122.92 20.5692 125.222 19.3609C126.681 18.5742 129.039 18.6585 130.302 19.5014Z" fill="#10509E"/>
</g>
<defs>
<clipPath id="clip0_47_14">
<rect width="137" height="40" fill="white"/>
</clipPath>
</defs>
</svg>
