<svg width="214" height="40" viewBox="0 0 214 40" fill="none" xmlns="http://www.w3.org/2000/svg">
<g clip-path="url(#clip0_47_19)">
<path fill-rule="evenodd" clip-rule="evenodd" d="M21.7832 0C22.2027 0.0238198 22.6024 0.18834 22.917 0.466797L39.8223 17.2471C40.077 17.5055 40.2919 18.0083 40.292 18.373H40.2881V21.623C40.2881 21.988 40.0734 22.4917 39.8184 22.75L22.9121 39.5303C22.6539 39.7852 22.144 39.9969 21.7773 39.9971H18.5039C18.1406 39.9971 17.6282 39.7853 17.3682 39.5303L0.46875 22.75C0.20875 22.4917 -0.000976562 21.988 -0.000976562 21.623V18.373C0.0215079 17.9548 0.187297 17.5573 0.46875 17.2471L17.375 0.466797C17.6333 0.211797 18.1455 0 18.5088 0H21.7832ZM18.0596 17.9316L7.48145 18.6279V21.3721L18.0596 22.0654L18.7598 32.5703H21.5264L22.2266 22.0654L32.8066 21.3721V18.6279L22.2266 17.9316L21.5264 7.42969H18.7598L18.0596 17.9316Z" fill="#020913"/>
<path d="M106.303 8.77668C103.128 8.77668 100.462 9.85834 98.3734 11.9833C96.2917 14.0833 95.2334 16.71 95.2334 19.7933C95.2334 22.8433 96.2917 25.47 98.3734 27.5983C100.458 29.735 103.128 30.8133 106.303 30.8133C109.457 30.8133 112.117 29.735 114.205 27.5983C116.312 25.4517 117.372 22.8267 117.372 19.7933C117.372 16.7317 116.308 14.1017 114.205 11.9867C112.117 9.85334 109.457 8.77668 106.303 8.77668ZM110.693 24.4533C109.507 25.6917 108.073 26.2933 106.303 26.2933C104.54 26.2933 103.053 25.675 101.885 24.4533C100.732 23.2533 100.143 21.685 100.143 19.7933C100.143 17.9033 100.732 16.335 101.885 15.135C103.055 13.9133 104.545 13.295 106.303 13.295C108.073 13.295 109.507 13.8933 110.693 15.135C111.868 16.355 112.467 17.925 112.467 19.7933C112.467 21.66 111.867 23.23 110.693 24.4533ZM176.422 17.4133C175.667 17.1823 174.908 16.9656 174.145 16.7633C173.578 16.6157 173.026 16.4131 172.498 16.1583C171.832 15.8417 171.548 15.4917 171.548 14.9783C171.548 14.54 171.548 13.205 174.822 13.205C177.152 13.205 179.377 13.8517 181.437 15.1133C181.437 15.1133 181.513 15.155 181.612 15.2217C181.755 15.315 181.843 15.1967 181.843 15.1383V10.79C181.843 10.5883 181.703 10.5233 181.703 10.5233C179.574 9.36512 177.186 8.76427 174.762 8.77668C172.28 8.77668 170.293 9.32834 168.857 10.4217C167.385 11.5133 166.635 13.0383 166.635 14.9467C166.635 17.7817 168.383 19.4267 170.827 20.5167C171.4 20.77 171.927 20.93 172.238 21.0233L173.793 21.525L175.452 22.025L176.16 22.2633C176.762 22.4717 176.945 22.5517 177.33 22.785C177.912 23.0483 178.245 23.5883 178.245 24.26C178.245 25.8317 176.227 26.385 174.495 26.385C173.063 26.3724 171.645 26.1096 170.303 25.6083C168.898 25.07 167.795 24.4467 166.93 23.7067C166.93 23.7067 166.817 23.6017 166.692 23.5017C166.562 23.4033 166.485 23.4667 166.485 23.6017V28.2767C166.485 28.5 166.6 28.5517 166.6 28.5517C168.777 30.0583 171.492 30.8133 174.673 30.8133C177.133 30.8133 179.123 30.2383 180.75 29.0533C182.383 27.8633 183.21 26.2067 183.21 24.1417C183.21 20.5583 180.553 18.6967 176.422 17.4133ZM186.967 30.1917C186.967 30.3067 187.06 30.4 187.177 30.4H191.543C191.599 30.4 191.652 30.3781 191.691 30.3391C191.731 30.3001 191.753 30.2471 191.753 30.1917V9.40001C191.753 9.3446 191.731 9.29162 191.691 9.2526C191.652 9.21357 191.599 9.19168 191.543 9.19168H187.177C187.121 9.19168 187.068 9.21357 187.029 9.2526C186.989 9.29162 186.967 9.3446 186.967 9.40001V30.1917ZM201.667 26.0567C201.587 26.0562 201.511 26.0246 201.454 25.9684C201.398 25.9123 201.366 25.8363 201.365 25.7567V9.48668C201.365 9.44714 201.357 9.40799 201.342 9.37149C201.327 9.33498 201.305 9.30183 201.277 9.27395C201.249 9.24607 201.215 9.22401 201.179 9.20903C201.142 9.19406 201.103 9.18646 201.063 9.18668H196.848C196.769 9.18711 196.693 9.2188 196.636 9.27492C196.58 9.33105 196.548 9.4071 196.547 9.48668V30.1C196.547 30.2633 196.683 30.4 196.848 30.4H211.628C211.668 30.4002 211.707 30.3926 211.744 30.3777C211.78 30.3627 211.814 30.3406 211.842 30.3127C211.87 30.2849 211.892 30.2517 211.907 30.2152C211.922 30.1787 211.93 30.1395 211.93 30.1V26.3567C211.929 26.2771 211.897 26.201 211.841 26.1449C211.784 26.0888 211.708 26.0571 211.628 26.0567H201.667ZM137.05 17.8717H131.417C131.288 17.8717 131.215 17.9733 131.215 18.0883L131.21 21.9467C131.21 22.08 131.293 22.1583 131.427 22.1583H135.072C135.233 22.1583 135.288 22.235 135.288 22.3533V24.9867C135.288 25.1383 135.227 25.195 135.195 25.22C134.283 25.985 133.022 26.35 131.362 26.35C129.54 26.35 127.987 25.7617 126.753 24.5933C125.527 23.4267 124.903 21.8483 124.903 19.8833C124.903 17.8667 125.527 16.3033 126.817 15.1133C128.11 13.89 129.738 13.295 131.81 13.295C133.265 13.2955 134.703 13.6021 136.032 14.195C136.495 14.3967 136.953 14.6333 137.415 14.905C137.487 14.9467 137.648 14.9467 137.69 14.8117C137.928 14.025 138.727 11.3683 138.765 11.235C138.812 11.0783 138.733 10.9683 138.685 10.935C136.554 9.5317 134.06 8.78152 131.508 8.77668C128.19 8.77668 125.415 9.81334 123.258 11.86C121.093 13.925 119.992 16.5933 119.992 19.7933C119.992 22.965 121.093 25.6367 123.258 27.7233C125.415 29.7733 128.142 30.81 131.358 30.81C133.076 30.8175 134.779 30.4897 136.372 29.845C137.852 29.2367 139.078 28.4683 139.972 27.5183C140.019 27.4758 140.056 27.423 140.079 27.3641C140.103 27.3052 140.113 27.2417 140.108 27.1783V18.0983C140.108 17.9633 140.042 17.8717 139.898 17.8717H137.048H137.05ZM88.59 22.4183C90.9684 20.975 92.3434 19.0933 92.3434 16.5883C92.3434 11.9217 88.4667 9.18335 84.8684 9.18335H75.4284C75.285 9.18335 75.2117 9.25668 75.2117 9.40001V30.1833C75.2117 30.3333 75.305 30.4 75.4284 30.4H79.9834C80.12 30.4 80.1967 30.3433 80.1967 30.1833V13.9133C80.1967 13.7717 80.2967 13.695 80.4134 13.695H84.6334C86.26 13.695 87.3534 15.1617 87.3534 16.5717C87.3534 18.015 86.2867 19.4033 84.6334 19.4033H81.6734C81.55 19.4033 81.4584 19.4833 81.4584 19.6217V20.3283C81.4584 20.4917 81.4584 20.5233 81.5584 20.6483C81.6334 20.7483 87.85 28.7283 88.9784 30.18C89.0917 30.3217 89.1617 30.4017 89.375 30.4017H94.5084C94.6834 30.4017 94.6934 30.28 94.62 30.185L88.59 22.4183ZM68.675 12.15C66.5134 10.1833 63.6784 9.18668 60.2517 9.18668H52.2117C52.1563 9.18668 52.1031 9.20857 52.0638 9.24759C52.0245 9.28662 52.0021 9.33961 52.0017 9.39501V30.1833C52.0017 30.2983 52.0967 30.3917 52.2117 30.3917H60.25C63.695 30.3917 66.53 29.4083 68.675 27.4583C70.8467 25.4833 71.945 22.905 71.945 19.785C71.9484 16.6967 70.8467 14.1217 68.675 12.15ZM59.8967 26.0567H57.22C57.0767 26.0567 57.0067 26.0117 57.0067 25.845V13.7367C57.0067 13.6 57.0684 13.5317 57.2234 13.5317H59.8934C64.4134 13.5317 67.0034 15.8133 67.0034 19.7917C67.0067 23.7717 64.4167 26.0583 59.8967 26.0583V26.0567ZM164.703 30.1267L158.5 15.6667L155.9 9.61668L155.897 9.61334L155.83 9.45834C155.791 9.38 155.732 9.31348 155.659 9.26571C155.585 9.21794 155.501 9.19065 155.413 9.18668H151.578C151.491 9.19116 151.407 9.21866 151.333 9.26638C151.26 9.31409 151.201 9.38032 151.162 9.45834L142.29 30.125C142.227 30.2733 142.307 30.395 142.472 30.395H146.922C147.087 30.395 147.272 30.2733 147.338 30.1233L149.143 25.9067C149.182 25.8282 149.241 25.7616 149.315 25.7135C149.388 25.6655 149.473 25.6378 149.56 25.6333H157.375C157.54 25.6333 157.725 25.755 157.792 25.9083L159.6 30.125C159.663 30.2733 159.852 30.395 160.017 30.395H164.523C164.685 30.3983 164.768 30.2767 164.702 30.1283L164.703 30.1267ZM155.79 21.6117H151.122C150.957 21.6117 150.877 21.49 150.938 21.34L153.355 15.69C153.417 15.54 153.522 15.54 153.585 15.69L155.972 21.3367C156.035 21.49 155.957 21.6117 155.79 21.6117Z" fill="#10509E"/>
<path d="M40.2916 19.1167V18.3733C40.2916 18.0083 40.0766 17.505 39.8216 17.2467L22.9166 0.466667C22.602 0.18821 22.2028 0.0238198 21.7833 0L21.0333 0L22.2266 17.9333L40.2916 19.1167ZM18.06 17.9333L19.255 0H18.505C18.1383 0 17.63 0.211667 17.3716 0.466667L0.468291 17.2467C0.186705 17.557 0.0207122 17.9549 -0.00170898 18.3733V19.1183L18.0583 17.9317L18.06 17.9333ZM22.2266 22.0667L21.0316 39.9967H21.7816C22.1483 39.9967 22.6583 39.785 22.9166 39.53L39.8166 22.75C40.0766 22.4933 40.2866 21.9883 40.2866 21.6233V20.8783L22.2266 22.0667ZM-4.23177e-05 20.8833V21.6267C-4.23177e-05 21.9933 0.213291 22.4967 0.469958 22.7533L17.3733 39.535C17.6333 39.7883 18.14 40.0017 18.5083 40.0017H19.2583L18.065 22.0683L-4.23177e-05 20.8833Z" fill="#10509E"/>
</g>
<defs>
<clipPath id="clip0_47_19">
<rect width="213.333" height="40" fill="white"/>
</clipPath>
</defs>
</svg>
