<svg width="171" height="40" viewBox="0 0 171 40" fill="none" xmlns="http://www.w3.org/2000/svg">
<g clip-path="url(#clip0_47_9)">
<path d="M24.39 14.2808C25.2044 10.9153 25.5665 7.54974 25.4759 4.09323V4.00227C31.3581 3.36554 37.9644 2.63786 41.7652 0C42.3083 3.36554 42.8512 8.91416 36.245 18.2831C29.4577 27.743 18.9602 32.9279 10.2726 35.6566C12.354 34.0193 14.2544 32.1091 16.0643 30.108C20.2272 25.378 22.9421 20.0114 24.39 14.2808Z" fill="#10509E"/>
<path d="M22.0371 4.45707C13.8924 5.27573 8.19119 7.91358 4.57134 12.4616C0.589523 17.3736 -0.767917 24.9233 0.408531 35.2019C0.499027 36.2024 0.589523 36.93 0.680019 37.4759H0.770515C5.11433 35.3837 22.1275 25.651 22.0371 4.45707Z" fill="#10509E"/>
<path d="M44.2991 10.6424C43.0321 14.0989 41.3127 17.3736 39.1408 20.3751C32.2631 29.9261 22.1275 35.1109 14.7069 37.8397C12.4703 38.7043 10.3155 39.3224 8.47565 39.8501L8.19118 39.9317C13.9829 40.2047 19.3221 39.6589 24.0279 38.2944C29.3673 36.7481 33.7111 34.1103 37.1499 30.5629C42.1271 25.378 44.6611 18.3741 44.2991 10.6424Z" fill="#10509E"/>
<path d="M67.2875 18.7411C66.1112 17.9224 63.7582 17.0129 61.3148 17.0129C58.8714 17.0129 57.152 18.1044 57.152 19.7417C57.152 21.197 58.5095 21.9247 60.6813 22.1976L62.8532 22.4706C66.7446 23.0163 69.0975 24.6536 69.0975 27.7463C69.0975 31.2937 65.93 33.5677 60.9528 33.5677C58.6905 33.5677 55.6136 33.022 53.1702 31.2027L54.6181 28.8377C55.9756 29.9293 57.7855 30.8389 60.8623 30.8389C63.9392 30.8389 65.7491 29.8383 65.7491 28.0191C65.7491 26.6547 64.5727 25.836 62.0388 25.4723L59.8668 25.1993C55.7946 24.6536 53.8036 22.8343 53.8036 20.0146C53.8036 16.4671 56.6995 14.375 61.2243 14.375C64.1202 14.375 66.7446 15.1027 68.5545 16.3761L67.2875 18.7411Z" fill="#10509E"/>
<path d="M79.9556 33.4717C84.3899 33.4717 88.3717 30.9248 88.3717 25.3762V14.6428H85.2043V25.1033C85.2043 28.9237 82.942 30.561 79.9556 30.561C76.9692 30.561 74.7068 28.8327 74.7068 25.1033V14.6428H71.5394V25.3762C71.5394 30.9248 75.5213 33.4717 79.9556 33.4717Z" fill="#10509E"/>
<path d="M107.098 16.9168L95.7858 30.1971H107.279V33.1078H91.6231V30.8338L103.116 17.5535H91.9851V14.6428H107.188V16.9168H107.098Z" fill="#10509E"/>
<path fill-rule="evenodd" clip-rule="evenodd" d="M124.38 33.1163H127.548V14.5603H124.38V17.1071C122.932 15.288 120.76 14.1964 117.865 14.1964C112.616 14.1964 108.634 18.1987 108.634 23.8383C108.634 29.4778 112.706 33.4801 117.865 33.4801C120.76 33.4801 122.932 32.3886 124.38 30.6603V33.1163ZM118.317 30.4784C114.516 30.4784 111.982 27.4767 111.982 23.8383C111.982 20.1998 114.607 17.1981 118.317 17.1981C122.027 17.1981 124.652 20.0178 124.652 23.8383C124.652 27.6586 122.118 30.4784 118.317 30.4784Z" fill="#10509E"/>
<path d="M148.734 21.6551V33.1163H145.567V22.6557C145.567 19.2903 143.666 17.2891 140.499 17.2891C137.512 17.2891 135.069 19.2903 135.069 22.7467V33.1163H131.902V14.6513H135.069V17.0161C136.607 14.9241 138.96 14.1964 141.042 14.1964C145.656 14.1964 148.734 17.1981 148.734 21.6551Z" fill="#10509E"/>
<path fill-rule="evenodd" clip-rule="evenodd" d="M161.223 33.4801C166.833 33.4801 170.997 29.2958 170.997 23.8383C170.997 18.3806 166.743 14.1964 161.223 14.1964C155.703 14.1964 151.54 18.3806 151.54 23.8383C151.54 29.2958 155.613 33.4801 161.223 33.4801ZM161.313 30.4784C157.603 30.4784 154.798 27.7496 154.798 23.8383C154.798 20.0178 157.603 17.1981 161.313 17.1981C165.023 17.1981 167.829 20.0178 167.829 23.8383C167.829 27.6586 165.023 30.4784 161.313 30.4784Z" fill="#10509E"/>
</g>
<defs>
<clipPath id="clip0_47_9">
<rect width="171" height="40" fill="white"/>
</clipPath>
</defs>
</svg>
