<svg width="163" height="40" viewBox="0 0 163 40" fill="none" xmlns="http://www.w3.org/2000/svg">
<g clip-path="url(#clip0_47_3)">
<path d="M31.8426 32.4613V25.9422C31.8426 24.445 33.0655 23.22 34.5606 23.22C35.0371 23.22 35.4235 23.607 35.4235 24.0842V32.5184C35.4235 36.4825 32.2157 39.6948 28.2578 39.6948H7.67231C3.70213 39.6948 0.483643 36.4715 0.483643 32.4954V13.9811C0.483643 9.984 3.71831 6.74451 7.70859 6.74451H13.0553L12.1378 8.54387L13.0553 10.3292H7.69243C5.71761 10.3292 4.117 11.9324 4.117 13.9102V32.5208C4.117 34.5023 5.72067 36.1086 7.69942 36.1086H28.2008C30.2125 36.1086 31.8426 34.4761 31.8426 32.4613Z" fill="#10509E"/>
<path d="M22.5765 0.791531C22.6768 0.865519 22.73 0.891795 22.8395 0.944328C22.8732 0.92198 22.9282 0.874801 22.9889 0.822743C23.0935 0.733061 23.2151 0.628876 23.2735 0.612253C23.344 0.593091 23.4266 0.595956 23.5095 0.598834C23.5601 0.60059 23.6109 0.602351 23.6591 0.599115C24.1523 0.578941 24.3117 0.417226 24.4634 0.263319C24.5717 0.153465 24.6761 0.0475888 24.8951 0C24.9515 0.0965259 25.2761 0.791531 25.2761 0.857202C25.2761 0.898917 25.2015 1.07317 25.1503 1.19259C25.1325 1.23419 25.1175 1.26916 25.1096 1.28952C24.7148 2.21613 25.5214 2.66641 25.5915 2.66641C25.8984 2.66641 26.1128 2.62788 26.4026 2.57535C26.6523 2.52621 26.9908 2.52648 27.2879 2.52672L27.3489 2.52675C27.5764 2.52443 27.682 2.39382 27.7682 2.28719C27.8281 2.21316 27.8786 2.15069 27.9541 2.15069C28.3341 2.15069 28.6497 2.28148 28.934 2.39933C29.1672 2.49596 29.3793 2.58389 29.5888 2.58389C29.9875 2.58389 30.4825 2.17302 30.6668 1.87946C30.6992 1.82687 30.7145 1.78844 30.731 1.74688C30.743 1.71649 30.7557 1.68443 30.7763 1.64393C30.8465 1.50799 31.0344 1.40775 31.1927 1.37753C31.4266 1.52598 31.4832 1.88879 31.5354 2.22352C31.5798 2.50874 31.6211 2.77356 31.7662 2.86802L32.2482 3.06876C32.2351 3.22176 32.0386 3.5105 31.9422 3.60702C31.8053 3.74497 31.647 3.85761 31.4899 3.96946C31.2389 4.14815 30.9907 4.32479 30.8371 4.59931C30.8079 4.65061 30.788 4.69724 30.7686 4.74283C30.7499 4.78651 30.7317 4.82925 30.7061 4.87423C30.9166 4.86109 31.2489 4.69977 31.4032 4.61637C31.872 4.3585 32.2659 4.26658 32.7787 4.46337C32.8436 4.48754 32.8898 4.51325 32.9327 4.53715C32.9912 4.56973 33.0437 4.59895 33.1295 4.61637C33.1199 4.93645 32.869 5.07659 32.6374 5.20599C32.4387 5.31694 32.2542 5.41998 32.2482 5.62179C32.5252 5.62179 32.6953 5.50254 32.8677 5.38174C33.0447 5.25774 33.224 5.13209 33.5236 5.13209C34.0101 5.13209 34.6016 5.31137 34.9832 5.49985C35.8003 5.89452 35.7748 6.15725 35.742 6.49409C35.7352 6.56379 35.7281 6.63665 35.7281 6.71452C35.921 6.71452 36.0809 6.67398 36.2323 6.63558C36.5523 6.55442 36.8345 6.48287 37.3104 6.8242C37.7399 7.13309 37.9372 7.10339 38.2076 7.06271C38.3123 7.04694 38.4281 7.02952 38.5726 7.02952C38.9628 7.02952 39.6152 7.51461 39.8218 7.74226C39.9354 7.86141 40.0224 7.98077 40.1135 8.10569L40.1142 8.10654C40.1564 8.16448 40.1996 8.22362 40.2467 8.28448C40.2894 8.33968 40.3275 8.39273 40.3644 8.44404C40.4558 8.57138 40.5396 8.68802 40.6676 8.80021C40.8369 8.94966 41.0676 9.00263 41.2946 9.05474C41.5719 9.11842 41.8436 9.18082 41.9909 9.41641C42.1658 9.70075 42.2669 10.5486 42.2669 11.0205C42.2669 11.5285 41.9879 11.8354 41.673 12.1814L41.6561 12.2L41.5922 12.2706C40.9902 12.9465 40.723 12.9871 40.5178 13.0184C40.3778 13.0397 40.2666 13.0566 40.0978 13.2675C39.9385 13.4678 39.8734 13.6248 39.8174 13.76C39.7132 14.0115 39.6403 14.1873 39.05 14.4259C38.6382 14.5921 38.6297 14.6275 38.5418 15.0338C38.504 15.2103 38.4683 15.4633 38.4285 15.7447C38.3254 16.4744 38.1952 17.3953 37.9326 17.67C37.8054 17.8007 37.5031 18.1374 37.4854 18.3388C37.4764 18.43 37.4778 18.4875 37.4788 18.5326C37.4808 18.6191 37.4817 18.6599 37.4067 18.8061C37.1663 19.2708 36.6929 19.7123 36.288 20.0899C36.2281 20.1458 36.1696 20.2003 36.1137 20.2533C35.2199 21.1011 35.075 21.1845 33.9314 21.0185C33.7472 20.9877 33.7124 21.01 33.6068 21.0879C33.3091 21.3066 33.1474 21.3638 32.7439 21.4425C32.3275 21.5251 31.3461 22.0193 31.0915 22.2341C30.6726 22.589 30.6239 23.0735 30.5765 23.5447C30.5376 23.9313 30.4996 24.309 30.2587 24.5987C30.177 24.6954 30.1033 24.7669 30.0285 24.8395C29.9716 24.8947 29.914 24.9506 29.8517 25.0187L29.7591 25.1321L29.6627 25.2372C29.643 25.2603 29.6235 25.2839 29.6039 25.3076C29.5021 25.4309 29.3984 25.5564 29.2557 25.6257C29.1651 25.674 29.1244 25.6829 29.0552 25.698C29.0237 25.7049 28.9863 25.7131 28.9357 25.7269C28.593 25.8243 28.332 26.2404 28.1068 26.5994C28.0093 26.7549 27.9184 26.8997 27.8306 27.0033C27.6951 27.1639 27.5539 27.2666 27.3781 27.2666C27.3076 27.2666 27.2904 27.1928 27.2691 27.1015C27.2533 27.0342 27.2354 26.9573 27.1921 26.8936C27.0843 26.7367 26.8607 26.5268 26.713 26.3881L26.6741 26.3516C26.4024 26.0947 26.0237 25.825 25.7035 25.5969C25.4404 25.4095 25.2167 25.2502 25.1242 25.1492C24.8856 24.8881 24.9881 24.7873 25.2366 24.543C25.3455 24.4359 25.4824 24.3013 25.6309 24.1136C25.8707 23.8103 26.2314 23.6363 26.5871 23.4648L26.6826 23.4186L26.7786 23.3713C27.1595 23.1843 27.2119 23.1585 27.3049 22.916C27.5161 22.3808 27.3229 22.1847 27.1668 22.0263C27.083 21.9411 27.0098 21.8668 27.0157 21.7567C27.0251 21.6304 27.0475 21.4933 27.0703 21.3533C27.1019 21.1595 27.1344 20.9604 27.1344 20.7775C26.9308 20.7315 26.7829 20.7333 26.6771 20.7347C26.5029 20.7368 26.4431 20.7376 26.4374 20.5203C26.4374 20.3666 26.4158 19.7944 26.3672 19.6679C26.2735 19.4376 25.8466 19.3715 25.4677 19.3129C25.2633 19.2813 25.0728 19.2518 24.9561 19.1999C24.9561 19.0854 24.9483 19.0029 24.9405 18.9212C24.9329 18.841 24.9253 18.7614 24.9253 18.6531C24.9253 17.8023 25.1238 17.3045 25.2628 16.956C25.453 16.4791 25.5317 16.2817 24.8381 15.8422C24.8452 15.7489 24.8617 15.6616 24.8785 15.573C24.9017 15.4503 24.9253 15.3251 24.9253 15.1781C24.8305 15.1781 24.7477 15.1646 24.6628 15.1508C24.6026 15.141 24.5414 15.131 24.4742 15.1255L24.4646 15.1247C24.3226 15.1118 24.1733 15.0983 24.0624 15.0553C23.9306 15.0075 23.8388 14.9511 23.7378 14.8723C23.723 14.8609 23.7091 14.8507 23.6963 14.8412C23.6099 14.7779 23.5667 14.7462 23.5667 14.5789C23.5667 14.4217 23.592 14.2726 23.6169 14.1258C23.6551 13.9013 23.6923 13.6821 23.6368 13.4468C23.5946 13.2656 23.3463 13.1934 23.0608 13.1104C22.8715 13.0554 22.666 12.9956 22.4932 12.8963C22.3897 12.8368 22.2894 12.7755 22.1898 12.7147C21.9815 12.5875 21.7763 12.4621 21.551 12.3586C21.4295 12.3037 21.3035 12.2579 21.1802 12.2132C20.6853 12.0336 20.2342 11.8698 20.2972 11.191C20.3044 11.1222 20.309 11.0468 20.3138 10.9677L20.3139 10.9664C20.3179 10.9005 20.3221 10.832 20.328 10.7624C20.3314 10.727 20.3368 10.704 20.3416 10.6834C20.3491 10.6511 20.3553 10.6249 20.3497 10.5663L20.328 10.2428H20.0867C19.6396 10.2428 19.3833 10.4043 19.0961 10.5853C18.7304 10.8157 18.3147 11.0776 17.3917 11.0776C16.5706 11.0776 16.6163 10.5772 16.6517 10.1893C16.6584 10.1157 16.6648 10.0462 16.6648 9.98489C16.5806 10.0235 16.4489 10.0603 16.3235 10.0954C16.2661 10.1115 16.2101 10.1272 16.1605 10.1425C16.1175 10.1542 16.0762 10.1657 16.036 10.1769C15.9124 10.2113 15.7975 10.2432 15.6654 10.273C15.192 9.97175 14.4248 8.93155 14.4248 8.35015C14.4248 8.25665 14.5587 8.10302 14.6364 8.0139C14.6498 7.99848 14.6616 7.985 14.6707 7.97409C14.8476 7.75988 14.9433 7.52843 15.0341 7.30908C15.2176 6.8656 15.3807 6.47156 16.152 6.36933C16.3448 6.34305 16.5198 6.32599 16.7209 6.30825C16.7837 6.30343 16.8542 6.29508 16.9271 6.28644C17.0531 6.27152 17.1864 6.25572 17.3001 6.25572C17.3152 6.19268 17.3339 6.13047 17.3527 6.06804C17.3768 5.98761 17.4011 5.90682 17.4179 5.82338C17.4351 5.74563 17.4518 5.66689 17.4687 5.58768C17.5464 5.22168 17.6265 4.84504 17.7596 4.50736C17.9746 3.96634 17.8697 3.83264 17.7316 3.65682C17.6186 3.51294 17.4835 3.34085 17.4835 2.89428C17.5859 2.88747 17.6953 2.83829 17.8026 2.79003C17.9023 2.74522 18.0001 2.70121 18.089 2.69267C18.0177 2.59272 17.9509 2.52286 17.8964 2.46592C17.7698 2.33368 17.71 2.27113 17.8166 2.06334C17.9895 2.06334 18.1461 2.04879 18.3053 2.03399C18.4209 2.02325 18.5378 2.01239 18.6634 2.00686C18.7755 2.0016 18.8822 1.99138 18.9904 1.98102C19.1522 1.96553 19.3172 1.94973 19.5084 1.94973C19.5345 1.98699 19.5603 2.02406 19.5859 2.06094C19.6805 2.19696 19.7732 2.33038 19.8769 2.46108C19.9168 2.51168 19.9449 2.55558 19.9689 2.59325C20.053 2.72507 20.0885 2.78068 20.4159 2.78068C20.9398 2.78068 21.1001 2.68796 21.4839 2.46594C21.5175 2.44652 21.5529 2.42603 21.5903 2.40461C21.6592 2.36496 21.7279 2.3304 21.7962 2.2961C21.8715 2.25826 21.9462 2.22069 22.0198 2.17694C22.0854 2.14215 22.1555 2.09881 22.2211 2.05022C22.2535 2.02696 22.2731 2.01148 22.2891 1.99886C22.321 1.97372 22.3384 1.95998 22.4139 1.91888C22.3776 1.77153 22.2745 1.64584 22.1701 1.51869C22.0366 1.35606 21.9011 1.19103 21.9011 0.975183C21.9011 0.924617 21.9144 0.877892 21.9283 0.829095C21.941 0.784744 21.9541 0.73868 21.9582 0.686465C22.0053 0.682771 22.0471 0.678182 22.0852 0.673997C22.2708 0.653614 22.3692 0.642796 22.5765 0.791531Z" fill="#10509E"/>
<path fill-rule="evenodd" clip-rule="evenodd" d="M66.3585 18.5371C67.0324 19.4105 67.3694 20.4614 67.3694 21.6908C67.3694 23.5164 66.616 24.9296 65.1109 25.9311C63.6058 26.9336 61.4266 27.434 58.5744 27.434H46.8678V6.60461H57.9799C60.7527 6.60461 62.8478 7.10109 64.2643 8.0927C65.68 9.08498 66.3887 10.4038 66.3887 12.0504C66.3887 13.0219 66.1456 13.8953 65.6606 14.6682C65.1749 15.4427 64.4571 16.0668 63.5063 16.5431C64.7347 16.9995 65.6853 17.6645 66.3585 18.5371ZM60.2979 20.8878C60.2979 19.7973 59.5252 19.2513 57.9799 19.2513H53.7606V22.5241H57.9799C59.5252 22.5241 60.2979 21.9788 60.2979 20.8878ZM53.7606 11.5143V14.6087H57.0293C58.5543 14.6087 59.3169 14.0936 59.3169 13.0619C59.3169 12.0303 58.5543 11.5143 57.0293 11.5143H53.7606Z" fill="#10509E"/>
<path fill-rule="evenodd" clip-rule="evenodd" d="M76.8476 22.1971H78.7492L82.2846 27.4343L96.8438 27.4345L98.2401 23.8034H106.144L107.54 27.4345H114.79L105.698 6.60425H98.8046L89.7363 27.3809L85.405 21.007C86.672 20.3522 87.6427 19.4694 88.3166 18.3583C88.9898 17.2478 89.3268 15.9482 89.3268 14.4601C89.3268 12.8731 88.9404 11.4846 88.1677 10.2947C87.3953 9.10474 86.2965 8.19193 84.8699 7.55624C83.4435 6.92231 81.7694 6.60425 79.8486 6.60425H69.8355V27.4343H76.8476V22.1971ZM79.4029 12.0205C80.3537 12.0205 81.067 12.2337 81.5419 12.6599C82.0177 13.087 82.2551 13.6863 82.2551 14.4601C82.2551 15.2339 82.0177 15.8339 81.5419 16.2601C81.067 16.6872 80.3537 16.9004 79.4029 16.9004H76.8476V12.0205H79.4029ZM104.212 18.7453L102.192 13.5081L100.172 18.7453H104.212Z" fill="#10509E"/>
<path d="M114.611 25.7675C115.661 26.4223 117.003 26.9428 118.637 27.3298C120.271 27.7166 121.95 27.9106 123.674 27.9106C125.753 27.9106 127.521 27.5978 128.977 26.973C130.433 26.3483 131.527 25.5048 132.26 24.4438C132.993 23.3828 133.359 22.1966 133.359 20.8878C133.359 19.3805 132.958 18.1897 132.156 17.3169C131.354 16.4444 130.408 15.8142 129.319 15.4274C128.229 15.0406 126.892 14.6984 125.308 14.4012C124.079 14.1623 123.198 13.9393 122.663 13.7315C122.128 13.5229 121.861 13.2103 121.861 12.794C121.861 11.9206 122.762 11.4843 124.565 11.4843C126.387 11.4843 128.318 12.0003 130.358 13.0319L132.468 7.9436C131.418 7.3482 130.205 6.89727 128.828 6.58994C127.451 6.28259 126.05 6.12805 124.625 6.12805C122.544 6.12805 120.776 6.43626 119.32 7.05093C117.864 7.66561 116.769 8.50902 116.037 9.58011C115.305 10.6518 114.938 11.842 114.938 13.1508C114.938 14.659 115.334 15.8544 116.126 16.7364C116.918 17.6196 117.85 18.2538 118.919 18.6406C119.989 19.0274 121.327 19.3897 122.93 19.7272C124.179 19.9851 125.075 20.2237 125.619 20.4415C126.164 20.6599 126.437 20.9874 126.437 21.423C126.437 21.7997 126.228 22.0832 125.813 22.2717C125.396 22.46 124.703 22.5543 123.733 22.5543C122.604 22.5543 121.425 22.3805 120.197 22.0331C118.969 21.6864 117.86 21.2254 116.869 20.6499L114.611 25.7675Z" fill="#10509E"/>
<path d="M135.439 6.60437H142.451V27.4338H135.439V6.60437Z" fill="#10509E"/>
<path d="M152.85 6.60437H145.838V27.4338H162.239V21.9887H152.85V6.60437Z" fill="#10509E"/>
<path fill-rule="evenodd" clip-rule="evenodd" d="M54.176 38.008H50.2513L49.5219 39.8144H46.844L50.9413 30.519H53.526L57.6367 39.8144H54.9056L54.176 38.008ZM53.4073 36.0699L52.2137 33.0953L51.02 36.0699H53.4073Z" fill="#10509E"/>
<path fill-rule="evenodd" clip-rule="evenodd" d="M66.5275 37.6494C66.9732 38.3845 67.5876 38.9598 68.3703 39.3761C69.1521 39.7923 70.0343 40 71.015 40C71.996 40 72.8779 39.7923 73.66 39.3761C74.4425 38.9598 75.0571 38.3845 75.5037 37.6494C75.95 36.915 76.1729 36.0872 76.1729 35.1667C76.1729 34.2462 75.95 33.4183 75.5037 32.6833C75.0571 31.9488 74.4425 31.3734 73.66 30.9572C72.8779 30.5411 71.996 30.3334 71.015 30.3334C70.0343 30.3334 69.1521 30.5411 68.3703 30.9572C67.5876 31.3734 66.9732 31.9488 66.5275 32.6833C66.0803 33.4183 65.8573 34.2462 65.8573 35.1667C65.8573 36.0872 66.0803 36.915 66.5275 37.6494ZM73.1896 36.5543C72.9682 36.9575 72.6674 37.2694 72.2882 37.4903C71.9081 37.7118 71.4839 37.8224 71.015 37.8224C70.5462 37.8224 70.1221 37.7118 69.742 37.4903C69.3619 37.2694 69.0612 36.9575 68.8407 36.5543C68.6195 36.1513 68.5091 35.6894 68.5091 35.1667C68.5091 34.6446 68.6195 34.1821 68.8407 33.7789C69.0612 33.3759 69.3619 33.0639 69.742 32.843C70.1221 32.6213 70.5462 32.511 71.015 32.511C71.4839 32.511 71.9081 32.6213 72.2882 32.843C72.6674 33.0639 72.9682 33.3759 73.1896 33.7789C73.4108 34.1821 73.5212 34.6446 73.5212 35.1667C73.5212 35.6894 73.4108 36.1513 73.1896 36.5543Z" fill="#10509E"/>
<path d="M100.125 39.3829C99.3518 38.9714 98.7442 38.3983 98.3024 37.6632C97.8598 36.9279 97.6393 36.0963 97.6393 35.1664C97.6393 34.2368 97.8598 33.405 98.3024 32.6699C98.7442 31.9355 99.3518 31.3617 100.125 30.9509C100.899 30.5393 101.771 30.3331 102.744 30.3331C103.593 30.3331 104.357 30.4837 105.038 30.7849C105.719 31.0859 106.284 31.5193 106.735 32.0861L105.065 33.5996C104.463 32.8737 103.734 32.5107 102.877 32.5107C102.373 32.5107 101.924 32.6219 101.531 32.8428C101.138 33.0637 100.832 33.3765 100.616 33.7788C100.399 34.1818 100.291 34.6444 100.291 35.1664C100.291 35.6894 100.399 36.1519 100.616 36.5543C100.832 36.9573 101.138 37.2692 101.531 37.4901C101.924 37.7118 102.373 37.8221 102.877 37.8221C103.734 37.8221 104.463 37.4601 105.065 36.7333L106.735 38.247C106.284 38.8137 105.719 39.2478 105.038 39.5488C104.357 39.85 103.593 40 102.744 40C101.771 40 100.899 39.7944 100.125 39.3829Z" fill="#10509E"/>
<path d="M115.805 35.6715C115.805 37.0521 116.187 38.1186 116.951 38.8716C117.715 39.6244 118.788 39.9998 120.167 39.9998C121.545 39.9998 122.617 39.6244 123.382 38.8716C124.146 38.1186 124.528 37.0521 124.528 35.6715V30.519H121.943V35.5918C121.943 37.0793 121.36 37.8229 120.193 37.8229C119.018 37.8229 118.43 37.0793 118.43 35.5918V30.519H115.805V35.6715Z" fill="#10509E"/>
<path fill-rule="evenodd" clip-rule="evenodd" d="M142.773 35.8368C143.074 36.2315 143.224 36.7071 143.224 37.2647C143.224 38.0794 142.897 38.7079 142.243 39.1505C141.589 39.5929 140.643 39.8146 139.406 39.8146H134.394V30.5193H139.141C140.325 30.5193 141.226 30.7386 141.845 31.1764C142.464 31.6142 142.773 32.2057 142.773 32.9495C142.773 33.3919 142.665 33.7881 142.448 34.1371C142.232 34.4877 141.925 34.7633 141.527 34.9673C142.058 35.1534 142.472 35.4437 142.773 35.8368ZM140.572 36.9727C140.572 36.3442 140.113 36.0299 139.194 36.0299H136.992V37.9157H139.194C140.113 37.9157 140.572 37.6014 140.572 36.9727ZM136.992 32.418V34.2104H138.796C139.68 34.2104 140.121 33.9094 140.121 33.3076C140.121 32.7146 139.68 32.418 138.796 32.418H136.992Z" fill="#10509E"/>
<path fill-rule="evenodd" clip-rule="evenodd" d="M152.871 37.6494C153.316 38.3845 153.931 38.9598 154.714 39.3761C155.495 39.7923 156.378 40 157.358 40C158.339 40 159.221 39.7923 160.003 39.3761C160.786 38.9598 161.4 38.3845 161.847 37.6494C162.293 36.915 162.516 36.0872 162.516 35.1667C162.516 34.2462 162.293 33.4183 161.847 32.6833C161.4 31.9488 160.786 31.3734 160.003 30.9572C159.221 30.5411 158.339 30.3334 157.358 30.3334C156.378 30.3334 155.495 30.5411 154.714 30.9572C153.931 31.3734 153.316 31.9488 152.871 32.6833C152.424 33.4183 152.201 34.2462 152.201 35.1667C152.201 36.0872 152.424 36.915 152.871 37.6494ZM159.533 36.5543C159.312 36.9575 159.011 37.2694 158.632 37.4903C158.251 37.7118 157.827 37.8224 157.358 37.8224C156.89 37.8224 156.465 37.7118 156.085 37.4903C155.705 37.2694 155.405 36.9575 155.184 36.5543C154.963 36.1513 154.852 35.6894 154.852 35.1667C154.852 34.6446 154.963 34.1821 155.184 33.7789C155.405 33.3759 155.705 33.0639 156.085 32.843C156.465 32.6213 156.89 32.511 157.358 32.511C157.827 32.511 158.251 32.6213 158.632 32.843C159.011 33.0639 159.312 33.3759 159.533 33.7789C159.754 34.1821 159.865 34.6446 159.865 35.1667C159.865 35.6894 159.754 36.1513 159.533 36.5543Z" fill="#10509E"/>
</g>
<defs>
<clipPath id="clip0_47_3">
<rect width="163" height="40" fill="white"/>
</clipPath>
</defs>
</svg>
