<svg width="156" height="40" viewBox="0 0 156 40" fill="none" xmlns="http://www.w3.org/2000/svg">
<path fill-rule="evenodd" clip-rule="evenodd" d="M16.4738 0.254706C12.5513 0.966325 9.03206 2.79484 6.0714 5.65943C-0.891526 12.3966 -1.99089 23.0164 3.42413 31.2352C4.30369 32.5704 6.46429 34.8528 7.88085 35.9434C13.9352 40.6041 22.46 41.3153 29.3158 37.7315C34.95 34.7862 38.9702 29.1236 39.8704 22.8649C40.1725 20.7651 39.9922 17.1048 39.4916 15.1781C37.4768 7.42122 31.2501 1.60493 23.517 0.256421C21.5602 -0.0848055 18.3493 -0.0855678 16.4738 0.254706ZM30.4697 8.41936C28.6089 9.06826 27.0864 9.65654 27.086 9.7265C27.0856 9.79665 27.3857 10.0395 27.7526 10.2664C28.1196 10.4932 28.4198 10.7546 28.4198 10.8472C28.4198 11.0329 15.5808 30.018 15.152 30.4662C14.9231 30.7056 14.8851 29.29 14.8851 20.5058V10.2664H12.3116H9.73815V23.522V36.7776L11.3108 37.5403C13.0427 38.3802 15.3299 39.141 15.698 38.9995C15.8276 38.9498 19.7077 33.2795 24.3205 26.3988C28.9334 19.518 32.7936 13.8902 32.8988 13.8925C33.0041 13.8948 33.3047 14.0645 33.5668 14.2696C33.8289 14.4747 34.1292 14.6444 34.234 14.6468C34.3528 14.6497 34.4067 13.8431 34.3772 12.5064C34.3131 9.61174 34.132 7.21382 33.9786 7.22792C33.9094 7.23422 32.3304 7.77046 30.4697 8.41936ZM92.9478 14.5544C90.1629 15.1741 88.1505 16.6004 86.5356 19.099C85.5093 20.6869 85.0154 22.3797 84.9952 24.3788C84.966 27.2467 85.8337 29.6438 87.603 31.5839C89.5764 33.7477 92.037 34.8612 94.8265 34.853C97.746 34.8442 99.8143 33.9993 101.812 31.9994C105.885 27.9226 105.893 21.3583 101.83 17.3036C100.337 15.8131 98.3446 14.7572 96.4745 14.4657C94.9186 14.2231 94.3755 14.2368 92.9478 14.5544ZM45.3858 24.3729V34.2857H47.1575H48.9294L52.3836 29.1863C54.2836 26.3816 57.3078 21.9209 59.1043 19.2736L62.3707 14.4602H60.1985H58.0265L53.4695 21.1591L48.9125 27.858L48.8623 21.1591L48.8122 14.4602H47.099H45.3858V24.3729ZM62.7331 24.3729V34.2857H68.3567H73.9802V32.57V30.8543H70.1676H66.3551V28.5668V26.2792H70.1676H73.9802V24.4682V22.6573H70.1676H66.3551V20.3697V18.0822H70.1676H73.9802V16.2712V14.4602H68.3567H62.7331V24.3729ZM75.124 16.2712V18.0822H76.935H78.746V26.1839V34.2857H80.5569H82.3679V26.1839V18.0822H84.0836H85.7992V16.2712V14.4602H80.4616H75.124V16.2712ZM106.197 24.3605V34.2857H107.912H109.628V30.3778C109.628 28.2284 109.692 26.4729 109.771 26.4765C109.85 26.4803 111.587 28.2301 113.631 30.3652L117.348 34.247L119.702 34.2662L122.057 34.2857L121.098 33.1895C120.571 32.5868 119.227 31.1927 118.111 30.0918C116.995 28.9909 115.658 27.6056 115.14 27.0133L114.199 25.9365L115.504 25.54C118.597 24.6004 120.329 21.5707 119.467 18.606C119.063 17.2165 117.659 15.6436 116.256 15.0096C115.304 14.579 115.017 14.5525 110.724 14.4955L106.197 14.4352V24.3605ZM122.4 24.3657V34.2857H124.213H126.025L125.976 24.4206L125.927 14.5555L124.163 14.5006L122.4 14.4459V24.3657ZM135.528 22.0377C132.355 26.2055 128.955 30.666 127.972 31.9504L126.186 34.2857H128.377H130.568L132.155 32.1891L133.743 30.0926L136.936 30.0922L140.129 30.0918V32.1887V34.2857H141.94H143.751V24.3729V14.4602H142.524H141.298L135.528 22.0377ZM144.894 24.3657V34.2857H150.041H155.188V32.57V30.8543H151.854H148.52L148.471 22.7049L148.421 14.5555L146.658 14.5006L144.894 14.4459V24.3657ZM93.307 17.7682C88.6253 18.9581 86.5808 24.6112 89.3535 28.6995C90.6258 30.5752 92.2294 31.4592 94.5682 31.574C96.6584 31.6765 97.9418 31.2274 99.4201 29.8762C101.789 27.7116 102.396 24.3474 100.951 21.3943C99.5844 18.6012 96.2509 17.02 93.307 17.7682ZM109.67 20.4174L109.723 22.7526H111.854C114.288 22.7526 114.773 22.5461 115.425 21.2312C115.756 20.5642 115.765 20.4261 115.521 19.7246C115.351 19.2393 115.011 18.7909 114.604 18.5174C114.024 18.1275 113.729 18.0822 111.786 18.0822H109.616L109.67 20.4174ZM138.254 24.1823L136.507 26.4699H138.318H140.129V24.1823C140.129 22.9241 140.1 21.8948 140.064 21.8948C140.029 21.8948 139.214 22.9241 138.254 24.1823Z" fill="#10509E"/>
<path fill-rule="evenodd" clip-rule="evenodd" d="M92.4117 14.7466C90.7967 15.1906 89.3628 16.0438 88.069 17.331C85.9477 19.441 84.9108 22.1518 85.0835 25.1355C85.4171 30.8998 90.066 35.1998 95.5212 34.7903C99.6419 34.4809 102.924 31.8689 104.3 27.8043C104.843 26.1998 104.889 23.4631 104.401 21.7995C103.381 18.3207 100.674 15.6245 97.3242 14.7521C95.9795 14.4019 93.675 14.3993 92.4117 14.7466ZM45.3857 24.4756V34.3L47.127 34.2453L48.8682 34.1904L53.342 27.6137C55.8027 23.9965 58.7917 19.6002 59.9843 17.844L62.1527 14.6509H60.0703H57.9881L53.4503 21.334L48.9124 28.0171L48.8622 21.334L48.8121 14.6509H47.0989H45.3857V24.4756ZM62.733 24.4683V34.2857H68.3566H73.9801V32.5701V30.8544H70.0722H66.1643V28.4715V26.0887H70.0722H73.9801V24.373V22.6573H70.0722H66.1643V20.2745V17.8916H70.0722H73.9801V16.2713V14.6509H68.3566H62.733V24.4683ZM75.1239 16.2713V17.8916H76.9349H78.7459V26.0887V34.2857H80.4615H82.1772V26.0887V17.8916H83.8929H85.6085V16.2713V14.6509H80.3662H75.1239V16.2713ZM106.196 24.4563V34.2857H107.912H109.628L109.638 30.2349L109.648 26.184L113.593 30.2354L117.539 34.2867L119.797 34.2863L122.055 34.2857L118.081 30.1712C115.896 27.9082 114.085 25.9954 114.057 25.9207C114.029 25.846 114.508 25.6813 115.121 25.5547C116.291 25.313 117.68 24.4695 118.386 23.5718C119.458 22.2096 119.835 20.1565 119.325 18.4563C118.992 17.3432 117.849 15.9948 116.681 15.337L115.633 14.7462L110.915 14.6866L106.196 14.6267V24.4563ZM122.4 24.4683V34.2857H124.116H125.831V24.4683V14.6509H124.116H122.4V24.4683ZM140.648 15.4611C139.741 16.5913 126.697 33.7554 126.523 34.0474C126.413 34.2324 126.843 34.2842 128.441 34.2789L130.502 34.2722L132.122 32.0965L133.742 29.9207L136.935 29.911L140.128 29.9013V32.0935V34.2857H141.844H143.56V24.4683V14.6509H142.429C141.327 14.6509 141.281 14.6721 140.648 15.4611ZM144.894 24.4683V34.2857H150.041H155.188V32.5701V30.8544H151.757H148.326V22.7527V14.6509H146.61H144.894V24.4683ZM92.8707 17.7866C91.0619 18.3745 89.2934 20.0228 88.5417 21.8216C87.0712 25.3412 88.7125 29.5787 92.1643 31.1739C93.1584 31.6333 93.5665 31.7115 94.9494 31.7067C96.295 31.7021 96.755 31.6152 97.6632 31.1943C99.0586 30.5473 100.447 29.1586 101.152 27.7048C101.648 26.6836 101.705 26.367 101.711 24.6555C101.716 22.8768 101.674 22.6589 101.091 21.4751C100.383 20.0364 99.0955 18.7561 97.6715 18.0752C96.5228 17.5262 94.1171 17.3815 92.8707 17.7866ZM109.628 20.3698V22.848L111.772 22.8472C113.563 22.8466 114.018 22.7851 114.527 22.4743C115.783 21.709 116.105 20.085 115.213 19.0241C114.449 18.1164 113.72 17.8916 111.54 17.8916H109.628V20.3698ZM138.26 24.0426L136.487 26.3746L138.237 26.4297C139.199 26.46 140.021 26.4501 140.063 26.4078C140.106 26.3655 140.116 25.2913 140.087 24.0207L140.033 21.7109L138.26 24.0426Z" fill="#10509E"/>
</svg>
