<svg width="167" height="40" viewBox="0 0 167 40" fill="none" xmlns="http://www.w3.org/2000/svg">
<path fill-rule="evenodd" clip-rule="evenodd" d="M21.9738 32.3786C19.7817 32.956 17.0347 33.3079 12.1941 33.6317C10.8469 33.7218 9.15063 33.9046 8.42449 34.038C5.01155 34.6649 2.13275 36.5339 0.504584 39.1799L0 39.9999L0.65961 39.4355C2.69217 37.6956 6.07935 36.6655 11.9231 36.0099C16.5189 35.4944 19.1864 34.8509 21.2213 33.7667C22.0385 33.3313 23.2475 32.2896 23.0873 32.1589C23.0497 32.1282 22.5487 32.2272 21.9738 32.3786Z" fill="#10509E"/>
<path fill-rule="evenodd" clip-rule="evenodd" d="M21.9738 32.3786C19.7817 32.956 17.0347 33.3079 12.1941 33.6317C10.8469 33.7218 9.15063 33.9046 8.42449 34.038C5.01155 34.6649 2.13275 36.5339 0.504584 39.1799L0 39.9999L0.65961 39.4355C2.69217 37.6956 6.07935 36.6655 11.9231 36.0099C16.5189 35.4944 19.1864 34.8509 21.2213 33.7667C22.0385 33.3313 23.2475 32.2896 23.0873 32.1589C23.0497 32.1282 22.5487 32.2272 21.9738 32.3786Z" fill="#10509E"/>
<path fill-rule="evenodd" clip-rule="evenodd" d="M47.1199 23.6845C45.1061 25.2481 42.7902 26.2361 36.611 28.1676C35.1769 28.616 33.2213 29.3663 32.2652 29.8348C30.6067 30.6479 28.58 32.042 28.7742 32.2362C28.8244 32.2865 28.9907 32.2146 29.1435 32.0763C29.574 31.6866 31.3418 30.9399 32.9038 30.4878C34.2402 30.1011 35.2238 29.8919 39.3765 29.1112C42.3194 28.558 44.459 27.4415 46.2836 25.5076C47.0517 24.6931 48.5047 22.7147 48.2641 22.8105C48.2431 22.8189 47.7283 23.212 47.1199 23.6845Z" fill="#10509E"/>
<path fill-rule="evenodd" clip-rule="evenodd" d="M11.009 17.028C10.5934 17.1434 10.6393 17.162 11.3793 17.1785C12.8588 17.2112 15.3346 17.8153 18.9105 19.0162C22.9633 20.3771 24.4094 20.6325 26.4669 20.3509C27.77 20.1725 29.8892 19.4587 30.4554 19.0073C30.7439 18.7774 30.7292 18.769 30.2128 18.8695C29.2676 19.0533 25.9345 18.9658 24.2834 18.7136C23.4143 18.5808 21.7736 18.2611 20.6377 18.0031C19.5016 17.745 17.9372 17.419 17.1611 17.2787C15.5506 16.9874 11.7173 16.8313 11.009 17.028Z" fill="#10509E"/>
<path fill-rule="evenodd" clip-rule="evenodd" d="M49.6521 0.284619C47.6959 1.00918 45.5679 2.94218 42.7763 6.53021C41.9648 7.5732 41.1342 8.58174 40.9304 8.77153L40.56 9.11635L38.1105 8.57921C31.8831 7.21353 27.1841 6.60022 22.1245 6.49308C17.1607 6.38799 14.868 6.68255 12.5554 7.7227C11.5804 8.16122 10.4556 8.9147 10.4556 9.12915C10.4556 9.46828 20.1304 13.8935 24.1029 15.3714C27.9819 16.8145 31.8618 17.5334 33.2186 17.0603C33.5037 16.961 33.7589 16.9016 33.7858 16.9283C33.9193 17.062 32.3654 19.1606 31.3286 20.2469C28.3618 23.3555 23.3586 26.718 16.1446 30.4516C14.2193 31.4481 13.2113 32.0474 13.4581 32.0488C14.478 32.0545 20.2794 31.041 24.4411 30.1302C29.9534 28.9238 38.8134 26.2112 41.7747 24.8234C45.87 22.9043 47.545 20.3999 50.5315 11.7287L51.2991 9.50004L53.0357 8.41834C55.1637 7.09264 55.6589 6.65269 56.8369 5.04222L57.7616 3.77799L59.1956 3.41879C60.4285 3.10985 61.0173 3.06133 63.395 3.07208C65.9916 3.08393 67.2964 3.23042 70.3129 3.84911C70.9818 3.98627 69.5114 3.21162 68.3729 2.82729C66.7691 2.28557 65.2389 2.03605 62.0017 1.78778C57.7071 1.45861 56.7899 1.31481 54.7877 0.657566C52.5627 -0.0729986 50.9361 -0.191046 49.6521 0.284619Z" fill="#10509E"/>
<path d="M165.632 16.5609H160.943V15.122C160.943 14.4505 160.883 14.0228 160.763 13.8389C160.643 13.655 160.443 13.5631 160.164 13.5631C159.86 13.5631 159.628 13.687 159.468 13.9348C159.316 14.1827 159.24 14.5584 159.24 15.062C159.24 15.7096 159.328 16.1972 159.504 16.525C159.672 16.8527 160.148 17.2484 160.931 17.7121C163.177 19.0472 164.592 20.1424 165.176 20.9977C165.76 21.8531 166.051 23.2321 166.051 25.1348C166.051 26.5178 165.887 27.537 165.56 28.1926C165.24 28.8481 164.616 29.3997 163.689 29.8474C162.762 30.2871 161.682 30.5069 160.451 30.5069C159.1 30.5069 157.945 30.2511 156.986 29.7395C156.035 29.2278 155.411 28.5763 155.115 27.7849C154.819 26.9934 154.672 25.8702 154.672 24.4153V23.1442H159.36V25.5065C159.36 26.234 159.424 26.7016 159.552 26.9095C159.688 27.1173 159.924 27.2213 160.259 27.2213C160.595 27.2213 160.843 27.0894 161.003 26.8256C161.171 26.5617 161.255 26.17 161.255 25.6504C161.255 24.5072 161.099 23.7598 160.787 23.408C160.467 23.0563 159.68 22.4687 158.425 21.6453C157.17 20.8139 156.338 20.2103 155.931 19.8346C155.523 19.4589 155.183 18.9392 154.911 18.2757C154.648 17.6122 154.516 16.7648 154.516 15.7335C154.516 14.2466 154.703 13.1594 155.079 12.4719C155.463 11.7844 156.078 11.2488 156.926 10.865C157.773 10.4733 158.797 10.2775 159.996 10.2775C161.307 10.2775 162.422 10.4893 163.341 10.913C164.269 11.3367 164.88 11.8723 165.176 12.5199C165.48 13.1594 165.632 14.2506 165.632 15.7935V16.5609Z" fill="#10509E"/>
<path d="M152.909 10.6852V30.0992H148.496V16.9926L146.733 30.0992H143.604L141.745 17.2924V30.0992H137.332V10.6852H143.867C144.059 11.8523 144.263 13.2274 144.479 14.8102L145.174 19.7507L146.326 10.6852H152.909Z" fill="#10509E"/>
<path d="M135.881 20.4701V23.8157H129.514V20.4701H135.881Z" fill="#10509E"/>
<path d="M128.063 10.6852V30.0992H123.014V10.6852H128.063Z" fill="#10509E"/>
<path d="M121.203 19.1511H116.155V15.7695C116.155 14.7862 116.099 14.1747 115.987 13.9348C115.883 13.687 115.647 13.5631 115.28 13.5631C114.864 13.5631 114.6 13.711 114.488 14.0068C114.376 14.3026 114.32 14.9421 114.32 15.9254V24.9429C114.32 25.8862 114.376 26.5018 114.488 26.7896C114.6 27.0774 114.852 27.2213 115.244 27.2213C115.619 27.2213 115.863 27.0774 115.975 26.7896C116.095 26.5018 116.155 25.8263 116.155 24.763V22.3288H121.203V23.0842C121.203 25.0908 121.059 26.5138 120.772 27.3532C120.492 28.1926 119.864 28.928 118.889 29.5596C117.922 30.1911 116.727 30.5069 115.304 30.5069C113.825 30.5069 112.606 30.2391 111.646 29.7035C110.687 29.1679 110.051 28.4284 109.74 27.4851C109.428 26.5338 109.272 25.1068 109.272 23.2042V17.5322C109.272 16.1333 109.32 15.086 109.416 14.3905C109.512 13.687 109.796 13.0115 110.267 12.364C110.747 11.7164 111.406 11.2088 112.246 10.8411C113.093 10.4653 114.065 10.2775 115.16 10.2775C116.647 10.2775 117.874 10.5653 118.841 11.1408C119.808 11.7164 120.444 12.4359 120.748 13.2993C121.051 14.1547 121.203 15.4897 121.203 17.3044V19.1511Z" fill="#10509E"/>
<path d="M99.1992 10.6852H107.617V14.5704H104.248V18.2517H107.401V21.9451H104.248V26.214H107.953V30.0992H99.1992V10.6852Z" fill="#10509E"/>
<path d="M85.9609 10.6852H89.5344C91.9167 10.6852 93.5275 10.7771 94.3669 10.961C95.2143 11.1448 95.9018 11.6165 96.4294 12.376C96.965 13.1274 97.2328 14.3306 97.2328 15.9854C97.2328 17.4963 97.045 18.5115 96.6692 19.0312C96.2935 19.5508 95.554 19.8626 94.4508 19.9665C95.4501 20.2143 96.1216 20.5461 96.4654 20.9618C96.8091 21.3775 97.021 21.7612 97.1009 22.113C97.1889 22.4567 97.2328 23.412 97.2328 24.9789V30.0992H92.5442V23.6479C92.5442 22.6086 92.4603 21.9651 92.2924 21.7172C92.1325 21.4694 91.7048 21.3455 91.0093 21.3455V30.0992H85.9609V10.6852ZM91.0093 14.0068V18.3237C91.5769 18.3237 91.9726 18.2477 92.1964 18.0958C92.4283 17.936 92.5442 17.4283 92.5442 16.5729V15.5057C92.5442 14.8902 92.4323 14.4864 92.2084 14.2946C91.9926 14.1027 91.5929 14.0068 91.0093 14.0068Z" fill="#10509E"/>
<path d="M84.1502 19.1511H79.1018V15.7695C79.1018 14.7862 79.0458 14.1747 78.9339 13.9348C78.83 13.687 78.5942 13.5631 78.2264 13.5631C77.8107 13.5631 77.5469 13.711 77.435 14.0068C77.3231 14.3026 77.2671 14.9421 77.2671 15.9254V24.9429C77.2671 25.8862 77.3231 26.5018 77.435 26.7896C77.5469 27.0774 77.7987 27.2213 78.1905 27.2213C78.5662 27.2213 78.81 27.0774 78.9219 26.7896C79.0418 26.5018 79.1018 25.8263 79.1018 24.763V22.3288H84.1502V23.0842C84.1502 25.0908 84.0063 26.5138 83.7185 27.3532C83.4387 28.1926 82.8111 28.928 81.8358 29.5596C80.8685 30.1911 79.6734 30.5069 78.2504 30.5069C76.7715 30.5069 75.5524 30.2391 74.593 29.7035C73.6337 29.1679 72.9982 28.4284 72.6864 27.4851C72.3746 26.5338 72.2188 25.1068 72.2188 23.2042V17.5322C72.2188 16.1333 72.2667 15.086 72.3626 14.3905C72.4586 13.687 72.7424 13.0115 73.214 12.364C73.6937 11.7164 74.3532 11.2088 75.1926 10.8411C76.04 10.4653 77.0113 10.2775 78.1065 10.2775C79.5934 10.2775 80.8206 10.5653 81.7879 11.1408C82.7552 11.7164 83.3907 12.4359 83.6945 13.2993C83.9983 14.1547 84.1502 15.4897 84.1502 17.3044V19.1511Z" fill="#10509E"/>
</svg>
