<svg width="177" height="40" viewBox="0 0 177 40" fill="none" xmlns="http://www.w3.org/2000/svg">
<g clip-path="url(#clip0_47_23)">
<path fill-rule="evenodd" clip-rule="evenodd" d="M6.41914 0.22113C6.33809 0.559115 4.11628 13.2745 4.11628 13.4002C4.11628 13.4608 4.2873 13.2169 4.49635 12.8582C7.61443 7.50752 13.1354 2.7257 18.8906 0.391155L19.8463 0.0034398L13.1593 0.00176904L6.47216 0L6.41914 0.22113ZM25.0897 0.0588698C20.27 0.910172 15.3268 3.70526 10.8895 8.08806C7.12587 11.8056 4.72147 15.5645 3.57538 19.5228C3.36986 20.2328 0 39.4123 0 39.8723C0 39.9884 1.75157 40.0036 11.6383 39.9735C24.3081 39.9348 23.7637 39.9571 26.7344 39.3565C29.1398 38.8702 31.6044 37.886 33.3139 36.7292C34.2725 36.0806 35.5617 34.8372 36.2861 33.8626C37.8986 31.6932 38.9053 28.405 38.7812 25.713C38.7194 24.3701 38.5535 23.6531 38.0735 22.6536C37.2412 20.9203 35.7962 19.7948 33.6197 19.1842L32.6361 18.9083L33.5718 18.3758C35.3956 17.3379 37.2593 15.7269 38.4012 14.2015C39.1395 13.215 39.9436 11.5405 40.2415 10.3686C40.5853 9.01651 40.6646 7.29966 40.4324 6.23292C40.1687 5.02093 39.6972 4.13543 38.8267 3.21769C37.5806 1.90388 36.2341 1.14821 34.2403 0.643735C32.3977 0.177494 31.4119 0.0787224 28.2749 0.0461916C26.6578 0.0293858 25.2245 0.035086 25.0897 0.0588698ZM163.23 2.91784C161.647 3.12383 159.807 3.65278 158.656 4.23322C156.296 5.42329 154.771 7.20147 154.029 9.63224C153.818 10.3196 148.676 39.359 148.676 39.858C148.676 39.9745 148.9 39.9996 149.926 39.998C154.928 39.9903 158.493 37.8527 159.595 34.2015C159.805 33.5045 165.141 3.4914 165.141 3.00531C165.141 2.87528 165.01 2.85248 164.333 2.86486C163.888 2.87292 163.392 2.89681 163.23 2.91784ZM174.543 3.00049C171.622 3.4571 169.468 4.48806 167.833 6.21297C166.709 7.39735 166.075 8.57278 165.694 10.172C165.604 10.5504 164.407 17.317 163.033 25.2088C161.66 33.1007 160.513 39.6572 160.485 39.7789C160.433 39.9998 160.435 40 161.748 40C166.994 40 170.702 37.5792 171.609 33.5627C171.698 33.1688 177 3.02113 177 2.90948C177 2.8056 175.414 2.86428 174.543 3.00049ZM17.19 12.4886L16.503 16.4268L20.2818 16.3886C24.4669 16.3462 24.5974 16.3297 25.9452 15.6699C27.6383 14.841 28.6331 13.1057 28.498 11.2171C28.4232 10.1725 27.9823 9.50713 27.056 9.04118C26.2417 8.63155 25.3982 8.55745 21.5078 8.55381L17.8769 8.55037L17.19 12.4886ZM74.8771 13.333C72.2828 13.5879 70.9666 13.8263 69.4377 14.3183C68.28 14.6908 66.9448 15.3116 66.208 15.82C64.976 16.67 63.8728 17.9689 63.268 19.2816C62.9668 19.9351 62.5282 21.3628 62.5282 21.6892C62.5282 21.7939 63.4371 21.8179 67.3551 21.8165L72.1819 21.8148L72.4124 21.2807C72.8391 20.2923 73.6749 19.6851 74.9365 19.4475C75.5668 19.3287 77.0634 19.3881 77.6328 19.5545C79.2066 20.0143 79.4361 21.661 78.0608 22.6253C77.2267 23.21 76.146 23.4571 72.339 23.9334C69.068 24.3425 67.3652 24.6656 65.829 25.1684C62.5202 26.2514 60.5721 27.9699 59.6177 30.6477C58.6095 33.4764 58.9438 35.9336 60.5746 37.6818C61.5928 38.7733 62.8993 39.4549 64.6839 39.8261C65.9507 40.0896 69.0178 40.0265 70.5158 39.7062C72.8417 39.2088 74.7234 38.3434 76.2163 37.0844L76.7226 36.6575L76.9313 36.9962C77.2155 37.4573 78.0983 38.2511 78.7296 38.6134C79.4136 39.0058 81.0752 39.5552 82.1786 39.7537C82.6637 39.841 83.6842 39.9384 84.4463 39.9702L85.8321 40.028L85.8915 39.7438C86.0863 38.8097 88.8084 23.1468 88.9348 22.2325C89.1267 20.8439 89.1289 19.1293 88.94 18.231C88.3343 15.351 85.8003 13.8171 80.9045 13.3671C79.9199 13.2766 75.6943 13.2527 74.8771 13.333ZM103.789 13.4157C99.7865 13.9645 96.4459 15.6549 93.7329 18.5045C90.932 21.4462 89.4607 25.1669 89.4491 29.3366C89.4422 31.808 89.9189 33.5747 91.0495 35.268C92.6194 37.6191 95.1214 39.1097 98.5975 39.7649C99.7199 39.9765 103.064 40.0589 104.387 39.9076C110.428 39.2165 115.069 36.21 117.368 31.4988C117.788 30.6366 118.294 29.2859 118.294 29.0246C118.294 28.9182 117.393 28.8945 113.369 28.8952L108.444 28.8962L108.057 29.706C107.758 30.3295 107.499 30.687 106.93 31.2588C105.657 32.5374 104.258 33.0544 102.672 32.8331C100.453 32.5236 99.5643 31.0457 99.857 28.1505C100.156 25.1907 100.864 23.1387 102.015 21.8912C102.984 20.8418 103.972 20.4423 105.599 20.4423C106.688 20.4423 107.196 20.5674 107.84 20.9938C108.38 21.3509 108.602 21.9149 108.623 22.9798L108.64 23.8329L113.59 23.8585C116.312 23.8725 118.589 23.8651 118.649 23.8418C118.73 23.8108 118.724 23.5798 118.629 22.9808C118.311 20.9928 117.519 19.0508 116.443 17.6207C114.735 15.3528 112.143 13.9021 108.931 13.4165C107.74 13.2367 105.098 13.2362 103.789 13.4157ZM134.397 13.4144C127.528 14.4674 122.286 19.0498 120.6 25.4746C119.5 29.6694 120.117 33.5385 122.296 36.1027C123.999 38.107 126.608 39.4075 129.833 39.8596C131.409 40.0806 134.712 40.0101 136.327 39.721C140.167 39.0339 143.203 37.5431 145.399 35.2667C146.43 34.1979 147.512 32.6279 147.741 31.8673L147.807 31.6462H143.048H138.289L137.626 32.3117C136.588 33.3558 135.522 33.8108 134.126 33.806C132.081 33.7988 130.577 32.7161 130.109 30.913C129.947 30.2903 129.908 29.3193 130.037 29.116C130.098 29.0201 132.164 28.9882 139.616 28.9686L149.117 28.9435L149.249 28.2555C149.457 27.1684 149.451 23.5497 149.239 22.5019C148.911 20.8775 148.344 19.4406 147.55 18.2197C145.991 15.8207 143.562 14.2669 140.259 13.5547C139.015 13.2864 135.743 13.2081 134.397 13.4144ZM58.6727 13.6601C57.4198 13.8854 56.1396 14.4122 55.0797 15.1382C54.05 15.8436 52.7435 17.3177 51.9645 18.6531C51.7659 18.9935 51.5902 19.2319 51.5739 19.1831C51.5577 19.1342 51.7224 18.0298 51.94 16.7287C52.1576 15.4278 52.3355 14.3381 52.3355 14.307C52.3355 14.276 50.2217 14.2506 47.6382 14.2506H42.9408L42.8381 14.7666C42.7817 15.0503 41.7861 20.7224 40.6257 27.371C39.4653 34.0197 38.4905 39.5811 38.4595 39.7297L38.403 40H43.6052C46.4663 40 48.8073 39.9623 48.8073 39.9161C48.8073 39.6498 50.5095 30.2857 50.6751 29.641C51.4043 26.8018 52.7201 25.0201 54.6764 24.2229C55.9121 23.7195 57.7395 23.5598 59.156 23.8315C59.5748 23.9119 59.9324 23.9626 59.9509 23.9441C60.0405 23.8543 61.7732 13.7555 61.7099 13.692C61.6033 13.5851 59.2286 13.5601 58.6727 13.6601ZM134.808 19.6165C133.405 19.9301 132.155 20.8406 131.548 21.991C131.288 22.4829 130.937 23.4669 130.937 23.7034C130.937 23.7476 132.971 23.7838 135.457 23.7838H139.978L139.935 22.9577C139.859 21.5062 139.104 20.3785 137.806 19.7751C137.125 19.4587 135.823 19.3898 134.808 19.6165ZM15.3782 22.9157C15.3734 22.9337 15.0285 24.8644 14.6118 27.206L13.8541 31.4636L18.2713 31.4229C23.1875 31.3775 23.3946 31.3542 24.7906 30.6898C26.4451 29.9024 27.3439 28.3871 27.3439 26.3851C27.3439 24.972 26.8708 24.144 25.7471 23.5908C24.5799 23.0159 24.1837 22.9733 19.5768 22.9259C17.2725 22.9023 15.3831 22.8976 15.3782 22.9157ZM77.2292 28.5051C76.6687 28.7338 75.0257 29.1157 73.242 29.4319C71.6408 29.7159 70.9605 29.9451 70.4394 30.376C69.5261 31.1315 69.3366 32.576 70.0406 33.415C70.5892 34.0688 71.7543 34.3663 73.1071 34.198C75.5362 33.896 77.2211 31.8971 77.7641 28.6732C77.834 28.258 77.8343 28.2581 77.2292 28.5051Z" fill="#10509E"/>
<path fill-rule="evenodd" clip-rule="evenodd" d="M25.1195 0.111723C21.5992 0.61875 17.3381 2.70072 13.4759 5.80086C11.9201 7.04961 9.45878 9.49885 8.2928 10.9582C5.96122 13.8766 4.22376 17.1143 3.53516 19.824C3.42236 20.2677 2.60322 24.8672 1.71489 30.0451C0.826555 35.223 0.0731778 39.5836 0.0408356 39.7353L-0.0180664 40.0112L11.3352 39.9712C20.9022 39.9375 22.8735 39.907 23.8646 39.7775C27.2985 39.3284 29.2648 38.7921 31.5252 37.6881C35.3399 35.8249 37.5839 32.8758 38.5204 28.4952C38.8226 27.0818 38.8256 25.1511 38.5275 24.0352C38.1853 22.7545 37.6936 21.8719 36.8532 21.03C35.9752 20.1502 35.1806 19.7037 33.7209 19.2693C33.1586 19.1019 32.6815 18.9479 32.6607 18.9271C32.6398 18.9062 33.0338 18.6456 33.5361 18.3479C35.5446 17.1574 37.2085 15.7225 38.3364 14.2079C40.6501 11.1013 41.1976 6.93364 39.6431 4.26337C39.214 3.52646 37.8893 2.27733 37.0037 1.77443C35.4284 0.879979 33.1604 0.314671 30.284 0.0994379C28.7155 -0.0179086 25.9742 -0.0114221 25.1195 0.111723ZM163.435 2.95821C158.6 3.46927 155.22 5.85777 154.077 9.57069C153.963 9.94268 152.723 16.8198 151.322 24.8532C149.921 32.8867 148.749 39.5811 148.717 39.7297L148.66 40H149.546C153.855 40 157.274 38.4699 158.856 35.8345C159.554 34.6704 159.616 34.3663 162.393 18.5258C163.852 10.2015 165.071 3.26907 165.101 3.12037C165.156 2.85393 165.15 2.8503 164.683 2.86317C164.423 2.87035 163.861 2.9131 163.435 2.95821ZM175.285 2.95457C173.59 3.12253 171.704 3.65099 170.39 4.32656C168.028 5.54121 166.498 7.39113 165.833 9.83831C165.666 10.4539 160.535 39.5806 160.535 39.9148C160.535 40.0873 163.305 39.9461 164.459 39.7149C166.927 39.2202 168.807 38.2199 170.017 36.7567C170.588 36.0674 171.211 34.8718 171.452 34.0049C171.613 33.4256 176.902 3.38701 176.902 3.05079C176.902 2.82386 176.716 2.81275 175.285 2.95457ZM17.8372 8.49954C17.8372 8.52568 17.5285 10.2954 17.1511 12.4324C16.7738 14.5694 16.4651 16.3391 16.4651 16.3653C16.4651 16.3914 18.1079 16.412 20.1158 16.4111C24.2096 16.4091 24.6536 16.3598 25.8389 15.7749C27.5766 14.9175 28.527 13.4245 28.5419 11.5287C28.5563 9.69325 27.5455 8.79772 25.1856 8.55487C24.2066 8.45413 17.8372 8.40617 17.8372 8.49954ZM75.0288 13.3755C72.5635 13.5423 70.1684 14.028 68.4689 14.7059C65.1637 16.0242 63.3099 18.179 62.5828 21.5479L62.5245 21.8182H67.3232H72.1219L72.3863 21.2273C72.6969 20.5332 73.2097 20.033 73.9832 19.6693C74.5016 19.4255 74.6206 19.4103 76.0041 19.4103C77.4238 19.4103 77.4938 19.4199 78.0461 19.6919C78.7393 20.0332 78.9924 20.3991 78.9929 21.0604C78.9936 21.9713 78.4056 22.6644 77.2708 23.0902C76.4596 23.3945 75.0506 23.6518 72.4269 23.9746C69.4892 24.3361 68.188 24.5595 66.6784 24.9615C64.5177 25.5367 62.9884 26.3222 61.7318 27.5021C60.431 28.7236 59.6668 30.1235 59.283 31.988C58.4286 36.1392 60.6996 39.1723 65.1744 39.8565C67.9343 40.2784 71.5637 39.7036 74.044 38.4518C74.7185 38.1113 75.7782 37.4156 76.4367 36.881C76.6684 36.6929 76.7843 36.6479 76.8133 36.7348C76.9285 37.0794 77.6794 37.8613 78.275 38.2571C79.7915 39.2644 81.7967 39.8035 84.6044 39.9584L85.8048 40.0247L87.3114 31.4262C88.1399 26.6971 88.8815 22.3021 88.9594 21.6596C89.222 19.4921 88.9469 17.6144 88.2011 16.4853C87.2461 15.0396 85.314 14.0583 82.5706 13.6256C80.4833 13.2965 77.6068 13.2011 75.0288 13.3755ZM104.524 13.3716C99.9956 13.8414 95.8654 15.9329 93.2151 19.0983C91.4633 21.1906 90.3218 23.5723 89.7683 26.2899C89.4838 27.6864 89.4064 30.2227 89.6123 31.4005C90.5367 36.687 94.6192 39.6947 101.241 39.9677C105.411 40.1397 109.543 39.0396 112.639 36.9335C113.716 36.2011 115.414 34.5365 116.128 33.5135C116.991 32.2767 117.987 30.2352 118.249 29.1646L118.315 28.8943H113.405H108.495L108.215 29.5086C107.669 30.7043 106.582 31.856 105.455 32.4326C103.912 33.2216 101.646 33.0196 100.669 32.0063C100.504 31.8353 100.248 31.43 100.1 31.1056C99.5986 30.0066 99.682 27.7134 100.315 25.2088C101.164 21.8469 103.147 20.1707 106.041 20.3696C106.969 20.4334 107.689 20.7294 108.143 21.2333C108.555 21.6903 108.688 22.1394 108.689 23.0712L108.689 23.7838H113.688C118.012 23.7838 118.686 23.7643 118.686 23.6398C118.686 23.5607 118.602 23.0614 118.499 22.5303C117.391 16.7969 113.216 13.474 106.925 13.3178C106.09 13.2971 105.009 13.3213 104.524 13.3716ZM135.151 13.3793C128.379 14.0734 122.9 18.3989 120.912 24.6191C119.183 30.0315 120.296 34.9019 123.862 37.5242C126.233 39.2681 129.518 40.1246 133.24 39.9693C139.972 39.6885 145.01 36.9985 147.448 32.3833L147.811 31.6953L143.044 31.6698L138.276 31.6443L138.012 31.9633C136.818 33.4064 135.155 34.0772 133.415 33.8177C132.457 33.6749 131.692 33.3 131.055 32.6614C130.272 31.8765 130.021 31.248 129.974 29.9508L129.935 28.8943H139.495C148.515 28.8943 149.058 28.8846 149.106 28.7223C149.421 27.6562 149.491 24.2825 149.228 22.801C148.55 18.9794 146.642 16.2767 143.51 14.7004C141.248 13.5621 138.148 13.0721 135.151 13.3793ZM59.0245 13.6608C56.0002 14.0877 53.7993 15.6747 51.9488 18.7626C51.6763 19.2172 51.4535 19.5345 51.4535 19.4679C51.4535 19.4012 51.6299 18.2918 51.8455 17.0024C52.0611 15.7131 52.2375 14.5887 52.2375 14.5036C52.2375 14.365 51.7521 14.3489 47.5822 14.3489C44.8869 14.3489 42.9269 14.3861 42.9269 14.4374C42.9269 14.4861 41.9346 20.1888 40.7217 27.1101C39.5089 34.0313 38.5166 39.7634 38.5166 39.8479C38.5166 39.9858 39.0455 39.9991 43.6301 39.9763L48.7435 39.9508L49.594 35.1351C50.4976 30.0189 50.684 29.1652 51.1459 28.0269C51.7497 26.539 52.7381 25.2695 53.7927 24.627C54.9916 23.8967 57.0958 23.4793 58.5135 23.6906C58.8619 23.7425 59.3249 23.8116 59.5423 23.844L59.9376 23.903L60.7999 19.003C61.2741 16.3081 61.6818 14.031 61.706 13.9428C61.7309 13.852 61.6772 13.7545 61.5822 13.7179C61.2932 13.6067 59.6652 13.5704 59.0245 13.6608ZM134.59 19.6068C133.161 20.0036 131.967 20.9792 131.379 22.2302C131.193 22.6251 131.012 23.1363 130.976 23.3661L130.912 23.7838H135.431H139.95L140.014 23.5287C140.11 23.1436 139.897 22.052 139.61 21.465C139.285 20.799 138.598 20.1203 137.902 19.7775C137.416 19.5378 137.234 19.5062 136.229 19.4866C135.483 19.4719 134.929 19.5126 134.59 19.6068ZM14.5728 27.0903C14.1576 29.4609 13.8181 31.4336 13.8184 31.4742C13.8192 31.5855 20.6694 31.5624 21.9045 31.447C24.8436 31.1721 26.4266 30.1478 27.1522 28.0511C27.4455 27.204 27.5091 26.0316 27.3008 25.3133C27.0748 24.5336 26.2795 23.7179 25.432 23.3963C24.2317 22.9411 23.613 22.8835 19.3511 22.8303L15.3276 22.7802L14.5728 27.0903ZM77.3403 28.4107C76.7287 28.6828 75.6643 28.9397 73.7184 29.2846C71.0646 29.7551 70.3453 30.0844 69.8473 31.0571C69.4778 31.779 69.4993 32.6855 69.9007 33.2935C70.6541 34.4353 72.9803 34.6435 74.7299 33.7259C75.9982 33.0606 76.9909 31.7498 77.5076 30.0577C77.6902 29.4597 77.8942 28.1967 77.8054 28.2133C77.785 28.2171 77.5757 28.3059 77.3403 28.4107Z" fill="#10509E"/>
</g>
<defs>
<clipPath id="clip0_47_23">
<rect width="177" height="40" fill="white"/>
</clipPath>
</defs>
</svg>
