<svg width="78" height="40" viewBox="0 0 78 40" fill="none" xmlns="http://www.w3.org/2000/svg">
<g clip-path="url(#clip0_47_12)">
<path d="M19.8831 0.00095633C18.3694 0.0281956 16.7762 0.359246 15.2798 1.01465C13.7901 1.66939 12.4044 2.62391 11.1769 3.73996C9.95734 4.86333 8.88324 6.12761 7.94123 7.47897C6.99589 8.83099 6.1693 10.2588 5.45612 11.6999C4.73828 13.133 4.13852 14.5954 3.6048 16.0205C3.07042 17.4456 2.63411 18.8402 2.25384 20.175C1.8709 21.509 1.56467 22.7833 1.30315 23.9638C0.784116 26.3235 0.465226 28.3163 0.269083 29.7136C0.175682 30.4082 0.107625 30.9486 0.0689296 31.3255C0.0228706 31.7004 0.00221972 31.9071 0.00221972 31.9071C-0.0151353 32.0374 0.0709352 32.1537 0.202361 32.173C0.336459 32.2002 0.468552 32.1078 0.485899 31.9736C0.485899 31.9736 0.527259 31.7815 0.58597 31.4086C0.642009 31.0363 0.735416 30.4846 0.852833 29.7967C1.10968 28.422 1.47727 26.4724 2.08704 24.1632C2.38993 23.008 2.76153 21.7576 3.18783 20.4575C3.61147 19.1633 4.09315 17.8099 4.67223 16.4359C5.24531 15.068 5.89243 13.6741 6.6403 12.3147C7.38417 10.9534 8.23078 9.61601 9.17545 8.37632C10.1135 7.13065 11.1609 5.994 12.311 5.01954C13.4572 4.05371 14.7188 3.2647 16.0137 2.75952C17.3019 2.25234 18.6329 2.05493 19.8831 2.07819C21.1307 2.11141 22.3122 2.366 23.3523 2.74289C24.399 3.12444 25.301 3.61101 26.0876 4.08893C26.8708 4.57484 27.5339 5.03482 28.0556 5.4516C28.1224 5.50212 28.177 5.55064 28.2391 5.60116C28.1897 5.62175 28.1364 5.62972 28.089 5.65101C27.5092 5.88433 26.9595 6.17879 26.4211 6.49851C25.8827 6.80893 25.361 7.16588 24.87 7.54543C24.3817 7.92565 23.9087 8.34708 23.469 8.77516C23.026 9.19991 22.6097 9.6313 22.2181 10.088C21.4269 11.0019 20.7457 11.9731 20.1333 12.9296C18.9224 14.8559 18.0545 16.769 17.4314 18.4633C16.8089 20.1616 16.4427 21.636 16.2805 22.6842C16.1985 23.2087 16.1578 23.6088 16.1471 23.8973C16.1384 24.0482 16.1471 24.0589 16.1471 24.13C16.1471 24.2011 16.1471 24.2131 16.1471 24.2131C16.1471 24.3314 16.2445 24.4225 16.3639 24.4291C16.4867 24.4358 16.5934 24.3454 16.5974 24.2297C16.5974 24.2297 16.5929 24.1812 16.5974 24.1134C16.6013 24.0422 16.5994 24.0608 16.6141 23.9306C16.6381 23.6674 16.6915 23.2705 16.7976 22.7673C16.9984 21.7703 17.4134 20.3524 18.0985 18.7292C18.7817 17.1126 19.7257 15.2721 20.9839 13.478C21.609 12.5806 22.3175 11.6959 23.1021 10.869C23.4917 10.4542 23.8853 10.066 24.3196 9.68914C24.7499 9.31025 25.2016 8.94931 25.6706 8.6256C26.1336 8.29657 26.6226 7.9888 27.1216 7.72823C27.6147 7.46434 28.1184 7.24432 28.6394 7.06352C28.8942 6.96647 29.1638 6.89402 29.4233 6.81425C29.484 6.79894 29.5314 6.77835 29.5901 6.7644C29.7936 6.71591 30.0017 6.66469 30.2072 6.63146C30.4687 6.58094 30.7316 6.55302 30.9911 6.51514C31.1185 6.49715 31.2453 6.48056 31.3747 6.46528C31.4748 6.45662 31.5695 6.45327 31.6749 6.44865H31.775C32.2873 6.41737 32.7977 6.47324 33.2927 6.51511C33.7837 6.58092 34.2521 6.66136 34.7104 6.781C35.6357 7.01299 36.489 7.33869 37.2456 7.69498C38.0088 8.05459 38.6826 8.43813 39.2637 8.80837C39.5499 9.00047 39.8194 9.17595 40.0642 9.35675C40.3064 9.53157 40.5326 9.69909 40.7314 9.8553C40.9235 10.0082 41.1117 10.1358 41.2651 10.2541C41.4145 10.3758 41.5306 10.4795 41.632 10.5699C41.8422 10.742 41.9656 10.8357 41.9656 10.8357L41.9823 10.869C41.993 10.8776 42.019 10.8789 42.0323 10.8856C42.5247 11.2558 43.2258 11.1621 43.6001 10.6696C43.9717 10.1783 43.8763 9.48305 43.3833 9.10749C43.3833 9.10749 43.2459 9.02042 43.0164 8.84161C42.8976 8.75786 42.7662 8.65615 42.5994 8.52587C42.4266 8.40423 42.2238 8.26663 41.999 8.11042C41.7801 7.95089 41.5233 7.78605 41.2484 7.61189C40.9789 7.42909 40.672 7.25761 40.3478 7.06351C39.6833 6.68529 38.9221 6.27449 38.0461 5.91688C37.1749 5.55262 36.1855 5.2196 35.1107 5.0029C34.5697 4.89322 34.0219 4.82675 33.4429 4.78686C32.8658 4.75896 32.276 4.74499 31.6749 4.8035C31.5301 4.81415 31.384 4.81944 31.2413 4.83673C31.1652 4.77358 31.0531 4.67453 30.891 4.5376C30.7423 4.41131 30.5508 4.26108 30.324 4.08892C30.0951 3.9161 29.8443 3.71668 29.5401 3.5073C28.9476 3.06859 28.1898 2.56873 27.2884 2.06155C26.3778 1.55238 25.2937 1.04919 24.0528 0.649033C22.8132 0.259511 21.3962 -0.018321 19.8831 0.00095633ZM72.3206 16.2033C71.6895 16.2033 70.7949 16.4659 70.3192 16.7018L70.0857 16.8182L70.2358 17.4829C69.3452 19.1746 59.6422 37.9327 59.5448 38.1222C59.1819 38.749 58.9277 39.2522 58.9277 39.2522C58.8303 39.419 58.825 39.5732 58.8944 39.6842C58.9678 39.8145 59.1286 39.867 59.3948 39.867H61.2627C61.9199 39.867 62.04 39.7042 62.2301 39.3685L65.5158 32.8211H69.9023C70.9183 32.7965 71.8317 31.7689 71.8537 30.6109V30.2786H66.8668L71.3867 21.3382L74.7391 39.0029C74.9245 39.8704 75.0066 40 75.4562 40C75.8672 40 76.7125 39.7653 77.3242 39.5845L77.6245 39.4848C77.9013 39.4011 78.0367 39.2143 77.9914 38.9863L73.5382 17.3499C73.2573 16.3283 72.7123 16.2033 72.3206 16.2033ZM53.5239 16.2199C51.8653 16.2199 49.2181 16.6108 48.3535 16.9179L48.3201 16.9345C47.7818 17.3207 47.3628 18.2354 47.3028 18.7459C47.3039 18.8795 47.4062 19.0283 47.603 19.0283C47.627 19.0283 47.8045 19.0044 48.0533 18.9785H48.0866C48.3528 18.9532 48.6817 18.904 48.9539 18.8788C48.6857 20.3458 48.1293 24.0576 47.5196 27.9687C46.8064 32.633 46.0505 37.4422 45.6849 39.4184C45.6569 39.5699 45.6949 39.6982 45.7683 39.8006C45.8831 39.9588 46.0819 39.9894 46.1686 40H46.1853H48.3035C48.7231 40 48.9613 39.6863 49.0373 39.4018C49.0627 39.221 51.7533 21.4293 52.2396 18.5797C52.5445 18.5611 53.0922 18.563 53.3404 18.563C54.9149 18.563 56.1891 19.0257 57.0264 19.8925C57.8283 20.726 58.2353 21.9079 58.1772 23.3323C58.0278 27.0581 56.2185 28.9492 52.8067 28.9492C52.327 28.9492 51.9854 28.9199 51.6392 28.783C51.427 28.6886 51.2996 28.7841 51.2889 29.0156C51.2416 29.7209 51.4918 30.3783 51.9561 30.7771C52.3611 31.1214 52.752 31.2258 53.7073 31.2258C56.7575 31.2258 61.3688 29.1492 61.5963 23.3988C61.687 21.2877 61.142 19.588 59.9618 18.3636C58.5948 16.9451 56.4233 16.2199 53.5239 16.2199ZM37.3957 16.2366C27.3144 16.2366 23.2942 23.9373 23.0521 29.1154C22.8793 32.3538 23.7219 35.0625 25.5038 36.9423C27.3825 38.9252 30.2866 39.9827 33.8931 40H34.0433C36.1121 40 38.0455 39.7228 40.2811 39.1026L40.4645 39.0528L40.5146 38.8534C40.612 38.315 40.7948 37.284 41.0149 36.0782C41.5053 33.4114 42.1164 30.0745 42.2658 29.3314C42.2958 29.0868 42.3118 28.775 42.1157 28.5504C41.9703 28.3755 41.7414 28.3059 41.4319 28.3011C41.2137 28.3011 40.1256 28.4061 39.9308 28.434C38.7353 28.5995 37.1275 29.0135 37.1121 29.0157L37.0788 29.0323C36.4737 29.4677 35.9073 31.0211 35.8446 31.4585C35.8339 31.5289 35.8265 31.5828 35.8612 31.6247C35.9346 31.7217 36.0567 31.7908 36.1948 31.7908L36.7452 31.7244C37.1361 31.6871 38.1329 31.5336 38.5131 31.4751C38.4978 31.5549 38.4871 31.6579 38.4631 31.7908C38.2756 32.9441 37.8247 35.6309 37.4791 37.2747C36.962 37.4349 35.7965 37.6569 34.7438 37.6569C32.2333 37.6416 30.1725 36.8779 28.8062 35.4467C27.3965 33.9571 26.7294 31.8074 26.8548 29.2151C27.1423 23.0871 31.4915 18.7957 37.4457 18.7957H37.5124C39.3264 18.8064 40.9749 19.4624 41.5153 19.6765C41.7428 19.7668 41.9683 19.826 42.1824 19.826C43.1271 19.826 43.6482 18.9825 43.8336 18.1975L43.8837 17.9981L43.7335 17.8651C42.6374 16.9212 40.0729 16.2499 37.4957 16.2366L37.3957 16.2366Z" fill="#10509E"/>
</g>
<defs>
<clipPath id="clip0_47_12">
<rect width="78" height="40" fill="white"/>
</clipPath>
</defs>
</svg>
